<?xml version="1.0" encoding="utf-8" ?>
<svg baseProfile="full" height="210mm" version="1.1" viewBox="0 0 297 210" width="297mm" xmlns="http://www.w3.org/2000/svg" xmlns:ev="http://www.w3.org/2001/xml-events" xmlns:xlink="http://www.w3.org/1999/xlink"><defs /><text font-size="4mm" x="10" y="14">STL views + dimensions (unit scale x1.0)</text><rect fill="none" height="60.0" stroke="black" stroke-width="0.2" width="134.5" x="152.5" y="28" /><text font-size="2mm" x="154.5" y="35">Notes</text><text font-size="1mm" x="154.5" y="44">Drawing scale: 0.5263 mm/mm</text><rect fill="none" height="60.0" stroke="black" stroke-width="0.2" width="134.5" x="10" y="28" /><text font-size="2mm" x="12" y="35">Top view (XY)</text><polyline fill="none" points="21.14500000000001,71.57868495194974 133.355,71.57868495194974 133.355,58.42131504805025 21.14500000000001,58.42131504805025 21.14500000000001,71.57868495194974" stroke="black" stroke-width="0.35" /><line stroke="black" stroke-width="0.2" x1="21.14500000000001" x2="21.14500000000001" y1="71.57868495194974" y2="81.57868495194974" /><line stroke="black" stroke-width="0.2" x1="133.355" x2="133.355" y1="71.57868495194974" y2="81.57868495194974" /><line stroke="black" stroke-width="0.2" x1="21.14500000000001" x2="133.355" y1="81.57868495194974" y2="81.57868495194974" /><polygon fill="black" points="21.14500000000001,81.57868495194974 22.34500000000001,80.82868495194974 22.34500000000001,82.32868495194974" /><polygon fill="black" points="133.355,81.57868495194974 132.155,80.82868495194974 132.155,82.32868495194974" /><text fill="black" font-size="1mm" stroke="white" stroke-linejoin="round" stroke-width="0.8" text-anchor="middle" x="77.25" y="79.77868495194974">213.21 mm</text><text fill="black" font-size="1mm" text-anchor="middle" x="77.25" y="79.77868495194974">213.21 mm</text><line stroke="black" stroke-width="0.2" x1="133.355" x2="141.5" y1="58.42131504805025" y2="58.42131504805025" /><line stroke="black" stroke-width="0.2" x1="133.355" x2="141.5" y1="71.57868495194974" y2="71.57868495194974" /><line stroke="black" stroke-width="0.2" x1="141.5" x2="141.5" y1="58.42131504805025" y2="71.57868495194974" /><polygon fill="black" points="141.5,58.42131504805025 140.75,59.621315048050256 142.25,59.621315048050256" /><polygon fill="black" points="141.5,71.57868495194974 140.75,70.37868495194974 142.25,70.37868495194974" /><text fill="black" font-size="1mm" stroke="white" stroke-linejoin="round" stroke-width="0.8" text-anchor="middle" transform="rotate(-90,143.7,65.0)" x="143.7" y="65.0">25.00 mm</text><text fill="black" font-size="1mm" text-anchor="middle" transform="rotate(-90,143.7,65.0)" x="143.7" y="65.0">25.00 mm</text><rect fill="none" height="104.0" stroke="black" stroke-width="0.2" width="134.5" x="10" y="96.0" /><text font-size="2mm" x="12" y="103.0">Side view (XZ)</text><polyline fill="none" points="21.14500000000001,160.9587392255978 21.185075000000012,160.9587392255978 21.26522500000001,160.94941704111153 21.34537500000001,160.9360800546215 21.42552500000001,160.91802626345324 21.50567500000001,160.89451404388385 21.58582500000001,160.86595247564082 21.66597500000001,160.83239689797998 21.74612500000001,160.79356295613027 21.82627500000001,160.74988011383672 21.90642500000001,160.70143302256386 21.98657500000001,160.64831544160765 22.06672500000001,160.59030813321465 22.14687500000001,160.52785310421407 22.227025000000012,160.46107133376447 22.30717500000001,160.38979749055397 22.38732500000001,160.31447365535445 22.46747500000001,160.23524568791004 22.54762500000001,160.15226704389286 22.62777500000001,160.06544824819994 22.70792500000001,159.97521929757966 22.78807500000001,159.88175483115654 22.86822500000001,159.78608842394772 22.94837500000001,159.68650411323324 23.02852500000001,159.58425849406294 23.10867500000001,159.47954944596424 23.18882500000001,159.37242619234345 23.26897500000001,159.26326430814936 23.34912500000001,159.15227513495537 23.42927500000001,159.03967359943363 23.50942500000001,158.9255864886027 23.58957500000001,158.81034155219353 23.66972500000001,158.69416196260553 23.74987500000001,158.57723047024928 23.83002500000001,158.4598317678193 23.91017500000001,158.34219306095116 23.99032500000001,158.22454220059814 24.07047500000001,158.10713103994988 24.15062500000001,157.9901789870521 24.23077500000001,157.87391251259504 24.31092500000001,157.75973729796144 24.391075000000008,157.64560499696032 24.47122500000001,157.53284363773474 24.55137500000001,157.42167144524774 24.63152500000001,157.312440619604 24.71167500000001,157.2052410033791 24.79182500000001,157.10027999453777 24.87197500000001,156.9977608681811 24.95212500000001,156.89807823613245 25.03227500000001,156.80124285368817 25.11242500000001,156.70744229321667 25.192575000000012,156.6170947923423 25.27272500000001,156.53015127106266 25.35287500000001,156.44678026487165 25.43302500000001,156.36714295981068 25.51317500000001,156.2916771322924 25.59332500000001,156.22025615662773 25.67347500000001,156.15301834592782 25.75362500000001,156.0908726661387 25.83377500000001,156.03270443834603 25.91392500000001,155.97909236919574 25.99407500000001,155.93014021144666 26.07422500000001,155.8862857056605 26.15437500000001,155.84727724960453 26.23452500000001,155.81319027375716 26.31467500000001,155.78409088734 26.39482500000001,155.76039754308326 26.47497500000001,155.74179747696894 26.55512500000001,155.72798896708323 26.63527500000001,155.7189259090558 26.71542500000001,155.71441786243912 26.79557500000001,155.71441786243912 26.87572500000001,155.7189259090558 26.95587500000001,155.72798896708323 27.03602500000001,155.74179747696894 27.11617500000001,155.76039754308326 27.19632500000001,155.78409088734 27.27647500000001,155.81319027375716 27.356625000000008,155.84727724960453 27.43677500000001,155.8862857056605 27.516925000000008,155.93014021144666 27.59707500000001,155.97909236919574 27.677225000000007,156.03270443834603 27.75737500000001,156.0908726661387 27.83752500000001,156.15301834592782 27.91767500000001,156.22025615662773 27.99782500000001,156.2916771322924 28.07797500000001,156.36714295981068 28.15812500000001,156.44678026487165 28.23827500000001,156.53015127106266 28.31842500000001,156.6170947923423 28.398575000000008,156.70744229321667 28.47872500000001,156.80124285368817 28.558875000000008,156.89807823613248 28.63902500000001,156.9977608681811 28.719175000000007,157.10027999453777 28.79932500000001,157.2052410033791 28.87947500000001,157.312440619604 28.95962500000001,157.42167144524774 29.03977500000001,157.53284363773474 29.11992500000001,157.64560499696032 29.20007500000001,157.75973729796144 29.28022500000001,157.87391251259504 29.360375000000012,157.9901789870521 29.440525000000008,158.10713103994988 29.52067500000001,158.22454220059814 29.600825000000007,158.34219306095116 29.68097500000001,158.4598317678193 29.761125000000007,158.57723047024928 29.84127500000001,158.69416196260553 29.92142500000001,158.81034155219353 30.00157500000001,158.9255864886027 30.08172500000001,159.03967359943363 30.16187500000001,159.15227513495537 30.24202500000001,159.26326430814936 30.32217500000001,159.37242619234345 30.402325000000012,159.47954944596424 30.482475000000008,159.58425849406294 30.56262500000001,159.68650411323324 30.642775000000007,159.78608842394772 30.72292500000001,159.88175483115654 30.803075000000007,159.97521929757966 30.88322500000001,160.06544824819994 30.96337500000001,160.15226704389286 31.04352500000001,160.23524568791004 31.12367500000001,160.31447365535445 31.20382500000001,160.38979749055397 31.28397500000001,160.46107133376447 31.36412500000001,160.52785310421407 31.44427500000001,160.59030813321465 31.524425000000008,160.64831544160765 31.604575000000008,160.70143302256386 31.684725000000007,160.74988011383672 31.76487500000001,160.79356295613027 31.845025000000007,160.83239689797998 31.92517500000001,160.86595247564082 32.00532500000001,160.89451404388385 32.08547500000001,160.91802626345324 32.165625000000006,160.9357161593574 32.24577500000001,160.9475982414785 32.32592500000001,160.95364950367033 32.40607500000001,160.95364950367033 32.486225000000005,160.9475982414785 32.56637500000001,160.9357161593574 32.64652500000001,160.91802626345324 32.72667500000001,160.89451404388385 32.80682500000001,160.86595247564082 32.88697500000001,160.83239689797998 32.96712500000001,160.79356295613027 33.04727500000001,160.74988011383672 33.12742500000001,160.70143302256386 33.207575000000006,160.64831544160765 33.28772500000001,160.59030813321465 33.36787500000001,160.52785310421407 33.44802500000001,160.46107133376447 33.52817500000001,160.38979749055397 33.60832500000001,160.31447365535445 33.68847500000001,160.23524568791004 33.76862500000001,160.15226704389286 33.84877500000001,160.06544824819994 33.92892500000001,159.97521929757966 34.00907500000001,159.88175483115654 34.08922500000001,159.78608842394772 34.16937500000001,159.68650411323324 34.249525000000006,159.58425849406294 34.32967500000001,159.47954944596424 34.40982500000001,159.37242619234345 34.48997500000001,159.26326430814936 34.570125000000004,159.15227513495537 34.65027500000001,159.03967359943363 34.73042500000001,158.9255864886027 34.81057500000001,158.81034155219353 34.89072500000001,158.69416196260553 34.97087500000001,158.57723047024928 35.05102500000001,158.4598317678193 35.131175000000006,158.34219306095116 35.21132500000001,158.22454220059814 35.291475000000005,158.10713103994988 35.37162500000001,157.9901789870521 35.45177500000001,157.87391251259504 35.53192500000001,157.75973729796144 35.61207500000001,157.64560499696032 35.69222500000001,157.53284363773474 35.77237500000001,157.42167144524774 35.85252500000001,157.312440619604 35.93267500000001,157.2052410033791 36.01282500000001,157.10027999453777 36.09297500000001,156.9977608681811 36.17312500000001,156.89807823613245 36.25327500000001,156.80124285368817 36.333425000000005,156.70744229321667 36.41357500000001,156.6170947923423 36.49372500000001,156.53015127106266 36.57387500000001,156.44678026487165 36.654025000000004,156.36714295981068 36.73417500000001,156.2916771322924 36.81432500000001,156.22025615662773 36.89447500000001,156.15301834592782 36.97462500000001,156.0908726661387 37.05477500000001,156.03270443834603 37.13492500000001,155.97909236919574 37.21507500000001,155.93014021144666 37.29522500000001,155.8862857056605 37.375375000000005,155.84727724960453 37.45552500000001,155.81319027375716 37.53567500000001,155.78409088734 37.61582500000001,155.76039754308326 37.695975000000004,155.74179747696894 37.77612500000001,155.72798896708323 37.85627500000001,155.7189259090558 37.936425000000014,155.71441786243912 38.016575,155.71441786243912 38.096725000000006,155.7189259090558 38.17687500000001,155.72798896708323 38.25702500000001,155.74179747696894 38.337175,155.76039754308326 38.417325000000005,155.78409088734 38.49747500000001,155.81319027375716 38.57762500000001,155.84727724960453 38.65777500000001,155.8862857056605 38.737925000000004,155.93014021144666 38.81807500000001,155.97909236919574 38.89822500000001,156.03270443834603 38.97837500000001,156.0908726661387 39.05852500000001,156.15301834592782 39.138675000000006,156.22025615662773 39.21882500000001,156.2916771322924 39.29897500000001,156.36714295981068 39.37912500000001,156.44678026487165 39.459275000000005,156.53015127106266 39.53942500000001,156.6170947923423 39.61957500000001,156.70744229321667 39.69972500000001,156.80124285368817 39.779875000000004,156.89807823613248 39.86002500000001,156.9977608681811 39.94017500000001,157.10027999453777 40.020325000000014,157.2052410033791 40.100475,157.312440619604 40.180625000000006,157.42167144524774 40.26077500000001,157.53284363773474 40.340925000000006,157.64560499696032 40.42107500000001,157.75973729796144 40.501225000000005,157.87391251259504 40.58137500000001,157.9901789870521 40.66152500000001,158.10713103994988 40.74167500000001,158.22454220059814 40.821825000000004,158.34219306095116 40.90197500000001,158.4598317678193 40.98212500000001,158.57723047024928 41.06227500000001,158.69416196260553 41.14242500000001,158.81034155219353 41.222575000000006,158.9255864886027 41.30272500000001,159.03967359943363 41.38287500000001,159.15227513495537 41.46302500000001,159.26326430814936 41.543175000000005,159.37242619234345 41.62332500000001,159.47954944596424 41.70347500000001,159.58425849406294 41.783625000000015,159.68650411323324 41.863775000000004,159.78608842394772 41.94392500000001,159.88175483115654 42.02407500000001,159.97521929757966 42.10422500000001,160.06544824819994 42.184375,160.15226704389286 42.264525000000006,160.23524568791004 42.34467500000001,160.31447365535445 42.42482500000001,160.38979749055397 42.50497500000001,160.46107133376447 42.585125000000005,160.52785310421407 42.66527500000001,160.59030813321465 42.74542500000001,160.64831544160765 42.82557500000001,160.70143302256386 42.905725000000004,160.74988011383672 42.98587500000001,160.79356295613027 43.06602500000001,160.83239689797998 43.14617500000001,160.86595247564082 43.22632500000001,160.89451404388385 43.306475000000006,160.91802626345324 43.38662500000001,160.9357161593574 43.46677500000001,160.9475982414785 43.54692500000001,160.95364950367033 43.627075000000005,160.95364950367033 43.70722500000001,160.9475982414785 43.78737500000001,160.9357161593574 43.86752500000001,160.91802626345324 43.947675000000004,160.89451404388385 44.02782500000001,160.86595247564082 44.10797500000001,160.83239689797998 44.188125000000014,160.79356295613027 44.268275,160.74988011383672 44.348425000000006,160.70143302256386 44.42857500000001,160.64831544160765 44.508725000000005,160.59030813321465 44.58887500000001,160.52785310421407 44.669025000000005,160.46107133376447 44.74917500000001,160.38979749055397 44.82932500000001,160.31447365535445 44.90947500000001,160.23524568791004 44.98962500000001,160.15226704389286 45.06977500000001,160.06544824819994 45.14992500000001,159.97521929757966 45.230075000000014,159.88175483115654 45.31022500000001,159.78608842394772 45.390375000000006,159.68650411323324 45.47052500000001,159.58425849406294 45.55067500000001,159.47954944596424 45.630825,159.37242619234345 45.710975000000005,159.26326430814936 45.79112500000001,159.15227513495537 45.87127500000001,159.03967359943363 45.951425000000015,158.9255864886027 46.031575000000004,158.81034155219353 46.11172500000001,158.69416196260553 46.19187500000001,158.57723047024928 46.272025000000006,158.4598317678193 46.352175,158.34219306095116 46.432325000000006,158.22454220059814 46.51247500000001,158.10713103994988 46.592625000000005,157.9901789870521 46.67277500000001,157.87391251259504 46.752925000000005,157.75973729796144 46.83307500000001,157.64560499696032 46.91322500000001,157.53284363773474 46.99337500000001,157.42167144524774 47.07352500000001,157.312440619604 47.15367500000001,157.2052410033791 47.23382500000001,157.10027999453777 47.31397500000001,156.9977608681811 47.394125,156.89807823613245 47.474275000000006,156.80124285368817 47.55442500000001,156.70744229321667 47.63457500000001,156.6170947923423 47.714725,156.53015127106266 47.794875000000005,156.44678026487165 47.87502500000001,156.36714295981068 47.955175000000004,156.2916771322924 48.03532500000001,156.22025615662773 48.115475,156.15301834592782 48.19562500000001,156.0908726661387 48.27577500000001,156.03270443834603 48.355925000000006,155.97909236919574 48.43607500000001,155.93014021144666 48.516225000000006,155.8862857056605 48.59637500000001,155.84727724960453 48.67652500000001,155.81319027375716 48.75667500000001,155.78409088734 48.836825000000005,155.76039754308326 48.91697500000001,155.74179747696894 48.99712500000001,155.72798896708323 49.07727500000001,155.7189259090558 49.157425,155.71441786243912 49.23757500000001,155.71441786243912 49.31772500000001,155.7189259090558 49.39787500000001,155.72798896708323 49.478025,155.74179747696894 49.558175000000006,155.76039754308326 49.63832500000001,155.78409088734 49.718475000000005,155.81319027375716 49.798625,155.84727724960453 49.878775000000005,155.8862857056605 49.95892500000001,155.93014021144666 50.03907500000001,155.97909236919574 50.11922500000001,156.03270443834603 50.199375,156.0908726661387 50.27952500000001,156.15301834592782 50.35967500000001,156.22025615662773 50.439825000000006,156.2916771322924 50.51997500000001,156.36714295981068 50.600125000000006,156.44678026487165 50.68027500000001,156.53015127106266 50.76042500000001,156.6170947923423 50.84057500000001,156.70744229321667 50.920725000000004,156.80124285368817 51.00087500000001,156.89807823613248 51.08102500000001,156.9977608681811 51.16117500000001,157.10027999453777 51.241325,157.2052410033791 51.32147500000001,157.312440619604 51.40162500000001,157.42167144524774 51.481775000000006,157.53284363773474 51.561925,157.64560499696032 51.642075000000006,157.75973729796144 51.72222500000001,157.87391251259504 51.80237500000001,157.9901789870521 51.88252500000001,158.10713103994988 51.962675000000004,158.22454220059814 52.04282500000001,158.34219306095116 52.12297500000001,158.4598317678193 52.20312500000001,158.57723047024928 52.283275,158.69416196260553 52.36342500000001,158.81034155219353 52.44357500000001,158.9255864886027 52.523725000000006,159.03967359943363 52.60387500000001,159.15227513495537 52.684025000000005,159.26326430814936 52.76417500000001,159.37242619234345 52.84432500000001,159.47954944596424 52.92447500000001,159.58425849406294 53.004625000000004,159.68650411323324 53.08477500000001,159.78608842394772 53.16492500000001,159.88175483115654 53.24507500000001,159.97521929757966 53.325225,160.06544824819994 53.40537500000001,160.15226704389286 53.48552500000001,160.23524568791004 53.565675000000006,160.31447365535445 53.64582500000001,160.38979749055397 53.725975000000005,160.46107133376447 53.806125,160.52785310421407 53.886275000000005,160.59030813321465 53.96642500000001,160.64831544160765 54.04657500000001,160.70143302256386 54.12672500000001,160.74988011383672 54.206875000000004,160.79356295613027 54.28702500000001,160.83239689797998 54.36717500000001,160.86595247564082 54.447325000000006,160.89451404388385 54.52747500000001,160.91802626345324 54.607625000000006,160.9357161593574 54.68777500000001,160.9475982414785 54.767925000000005,160.95364950367033 54.848075,160.95364950367033 54.928225000000005,160.9475982414785 55.00837500000001,160.9357161593574 55.088525000000004,160.91802626345324 55.16867500000001,160.89451404388385 55.24882500000001,160.86595247564082 55.32897500000001,160.83239689797998 55.40912500000001,160.79356295613027 55.489275000000006,160.74988011383672 55.569425,160.70143302256386 55.649575000000006,160.64831544160765 55.72972500000001,160.59030813321465 55.809875000000005,160.52785310421407 55.89002500000001,160.46107133376447 55.97017500000001,160.38979749055397 56.050325,160.31447365535445 56.130475000000004,160.23524568791004 56.21062500000001,160.15226704389286 56.290775000000004,160.06544824819994 56.37092500000001,159.97521929757966 56.45107500000001,159.88175483115654 56.531225000000006,159.78608842394772 56.61137500000001,159.68650411323324 56.691525000000006,159.58425849406294 56.771675,159.47954944596424 56.851825000000005,159.37242619234345 56.93197500000001,159.26326430814936 57.012125000000005,159.15227513495537 57.09227500000001,159.03967359943363 57.172425000000004,158.9255864886027 57.252575,158.81034155219353 57.332725,158.69416196260553 57.41287500000001,158.57723047024928 57.49302500000001,158.4598317678193 57.573175000000006,158.34219306095116 57.65332500000001,158.22454220059814 57.73347500000001,158.10713103994988 57.81362500000001,157.9901789870521 57.893775000000005,157.87391251259504 57.97392500000001,157.75973729796144 58.054075000000005,157.64560499696032 58.13422500000001,157.53284363773474 58.21437500000001,157.42167144524774 58.29452500000001,157.312440619604 58.374675,157.2052410033791 58.45482500000001,157.10027999453777 58.534975,156.9977608681811 58.615125000000006,156.89807823613245 58.69527500000001,156.80124285368817 58.775425000000006,156.70744229321667 58.85557500000001,156.6170947923423 58.93572500000001,156.53015127106266 59.015875,156.44678026487165 59.096025000000004,156.36714295981068 59.17617500000001,156.2916771322924 59.256325000000004,156.22025615662773 59.33647500000001,156.15301834592782 59.41662500000001,156.0908726661387 59.49677500000001,156.03270443834603 59.576925,155.97909236919574 59.657075000000006,155.93014021144666 59.737225,155.8862857056605 59.817375000000006,155.84727724960453 59.89752500000001,155.81319027375716 59.977675000000005,155.78409088734 60.05782500000001,155.76039754308326 60.13797500000001,155.74179747696894 60.218125,155.72798896708323 60.298275000000004,155.7189259090558 60.37842500000001,155.71441786243912 60.458575,155.71441786243912 60.53872500000001,155.7189259090558 60.61887500000001,155.72798896708323 60.699025,155.74179747696894 60.779175,155.76039754308326 60.859325000000005,155.78409088734 60.93947500000001,155.81319027375716 61.019625000000005,155.84727724960453 61.09977500000001,155.8862857056605 61.17992500000001,155.93014021144666 61.26007500000001,155.97909236919574 61.34022500000001,156.03270443834603 61.42037500000001,156.0908726661387 61.500525,156.15301834592782 61.58067500000001,156.22025615662773 61.66082500000001,156.2916771322924 61.740975000000006,156.36714295981068 61.82112500000001,156.44678026487165 61.901275000000005,156.53015127106266 61.981425,156.6170947923423 62.061575000000005,156.70744229321667 62.14172500000001,156.80124285368817 62.221875000000004,156.89807823613248 62.30202500000001,156.9977608681811 62.38217500000001,157.10027999453777 62.46232500000001,157.2052410033791 62.542475,157.312440619604 62.622625000000006,157.42167144524774 62.702775,157.53284363773474 62.782925000000006,157.64560499696032 62.86307500000001,157.75973729796144 62.943225000000005,157.87391251259504 63.023375,157.9901789870521 63.103525000000005,158.10713103994988 63.183675,158.22454220059814 63.263825000000004,158.34219306095116 63.34397500000001,158.4598317678193 63.424125000000004,158.57723047024928 63.50427500000001,158.69416196260553 63.58442500000001,158.81034155219353 63.66457500000001,158.9255864886027 63.744725,159.03967359943363 63.824875000000006,159.15227513495537 63.90502500000001,159.26326430814936 63.985175000000005,159.37242619234345 64.065325,159.47954944596424 64.145475,159.58425849406294 64.22562500000001,159.68650411323324 64.30577500000001,159.78608842394772 64.38592500000001,159.88175483115654 64.466075,159.97521929757966 64.546225,160.06544824819994 64.62637500000001,160.15226704389286 64.706525,160.23524568791004 64.786675,160.31447365535445 64.866825,160.38979749055397 64.94697500000001,160.46107133376447 65.02712500000001,160.52785310421407 65.10727500000002,160.59030813321465 65.187425,160.64831544160765 65.26757500000001,160.70143302256386 65.34772500000001,160.74988011383672 65.427875,160.79356295613027 65.508025,160.83239689797998 65.588175,160.86595247564082 65.66832500000001,160.89451404388385 65.74847500000001,160.91802626345324 65.82862500000002,160.9357161593574 65.908775,160.9475982414785 65.98892500000001,160.95364950367033 66.069075,160.95364950367033 66.149225,160.9475982414785 66.229375,160.9357161593574 66.30952500000001,160.91802626345324 66.38967500000001,160.89451404388385 66.46982500000001,160.86595247564082 66.549975,160.83239689797998 66.63012499999999,160.79356295613027 66.710275,160.74988011383672 66.790425,160.70143302256386 66.870575,160.64831544160765 66.950725,160.59030813321465 67.03087500000001,160.52785310421407 67.11102500000001,160.46107133376447 67.19117500000002,160.38979749055397 67.271325,160.31447365535445 67.35147500000001,160.23524568791004 67.431625,160.15226704389286 67.511775,160.06544824819994 67.591925,159.97521929757966 67.672075,159.88175483115654 67.75222500000001,159.78608842394772 67.83237500000001,159.68650411323324 67.912525,159.58425849406294 67.992675,159.47954944596424 68.07282500000001,159.37242619234345 68.152975,159.26326430814936 68.233125,159.15227513495537 68.313275,159.03967359943363 68.39342500000001,158.9255864886027 68.47357500000001,158.81034155219353 68.55372500000001,158.69416196260553 68.633875,158.57723047024928 68.714025,158.4598317678193 68.79417500000001,158.34219306095116 68.874325,158.22454220059814 68.954475,158.10713103994988 69.034625,157.9901789870521 69.11477500000001,157.87391251259504 69.19492500000001,157.75973729796144 69.27507500000002,157.64560499696032 69.355225,157.53284363773474 69.43537500000001,157.42167144524774 69.51552500000001,157.312440619604 69.595675,157.2052410033791 69.675825,157.10027999453777 69.755975,156.9977608681811 69.83612500000001,156.89807823613245 69.91627500000001,156.80124285368817 69.99642500000002,156.70744229321667 70.07657499999999,156.6170947923423 70.156725,156.53015127106266 70.236875,156.44678026487165 70.317025,156.36714295981068 70.397175,156.2916771322924 70.47732500000001,156.22025615662773 70.55747500000001,156.15301834592782 70.63762500000001,156.0908726661387 70.71777500000002,156.03270443834603 70.797925,155.97909236919574 70.878075,155.93014021144666 70.958225,155.8862857056605 71.038375,155.84727724960453 71.118525,155.81319027375716 71.19867500000001,155.78409088734 71.27882500000001,155.76039754308326 71.358975,155.74179747696894 71.439125,155.72798896708323 71.51927500000001,155.7189259090558 71.599425,155.71441786243912 71.679575,155.71441786243912 71.759725,155.7189259090558 71.839875,155.72798896708323 71.92002500000001,155.74179747696894 72.00017500000001,155.76039754308326 72.080325,155.78409088734 72.160475,155.81319027375716 72.24062500000001,155.84727724960453 72.320775,155.8862857056605 72.400925,155.93014021144666 72.481075,155.97909236919574 72.56122500000001,156.03270443834603 72.64137500000001,156.0908726661387 72.72152500000001,156.15301834592782 72.801675,156.22025615662773 72.881825,156.2916771322924 72.96197500000001,156.36714295981068 73.042125,156.44678026487165 73.122275,156.53015127106266 73.202425,156.6170947923423 73.28257500000001,156.70744229321667 73.36272500000001,156.80124285368817 73.44287500000002,156.89807823613248 73.52302500000002,156.9977608681811 73.603175,157.10027999453777 73.683325,157.2052410033791 73.763475,157.312440619604 73.843625,157.42167144524774 73.923775,157.53284363773474 74.00392500000001,157.64560499696032 74.08407500000001,157.75973729796144 74.16422500000002,157.87391251259504 74.244375,157.9901789870521 74.324525,158.10713103994988 74.404675,158.22454220059814 74.484825,158.34219306095116 74.564975,158.4598317678193 74.64512500000001,158.57723047024928 74.72527500000001,158.69416196260553 74.805425,158.81034155219353 74.885575,158.9255864886027 74.965725,159.03967359943363 75.045875,159.15227513495537 75.126025,159.26326430814936 75.206175,159.37242619234345 75.286325,159.47954944596424 75.36647500000001,159.58425849406294 75.44662500000001,159.68650411323324 75.526775,159.78608842394772 75.606925,159.88175483115654 75.68707500000001,159.97521929757966 75.767225,160.06544824819994 75.847375,160.15226704389286 75.927525,160.23524568791004 76.007675,160.31447365535445 76.08782500000001,160.38979749055397 76.16797500000001,160.46107133376447 76.248125,160.52785310421407 76.328275,160.59030813321465 76.40842500000001,160.64831544160765 76.488575,160.70143302256386 76.568725,160.74988011383672 76.648875,160.79356295613027 76.72902500000001,160.83239689797998 76.80917500000001,160.86595247564082 76.88932500000001,160.89451404388385 76.96947500000002,160.91802626345324 77.049625,160.9357161593574 77.129775,160.9475982414785 77.209925,160.95364950367033 77.290075,160.95364950367033 77.370225,160.9475982414785 77.45037500000001,160.9357161593574 77.53052500000001,160.91802626345324 77.61067500000001,160.89451404388385 77.69082500000002,160.86595247564082 77.77097499999999,160.83239689797998 77.851125,160.79356295613027 77.931275,160.74988011383672 78.011425,160.70143302256386 78.091575,160.64831544160765 78.17172500000001,160.59030813321465 78.25187500000001,160.52785310421407 78.332025,160.46107133376447 78.412175,160.38979749055397 78.492325,160.31447365535445 78.572475,160.23524568791004 78.652625,160.15226704389286 78.732775,160.06544824819994 78.812925,159.97521929757966 78.89307500000001,159.88175483115654 78.973225,159.78608842394772 79.053375,159.68650411323324 79.133525,159.58425849406294 79.213675,159.47954944596424 79.293825,159.37242619234345 79.373975,159.26326430814936 79.454125,159.15227513495537 79.53427500000001,159.03967359943363 79.61442500000001,158.9255864886027 79.694575,158.81034155219353 79.774725,158.69416196260553 79.854875,158.57723047024928 79.935025,158.4598317678193 80.015175,158.34219306095116 80.095325,158.22454220059814 80.175475,158.10713103994988 80.25562500000001,157.9901789870521 80.33577500000001,157.87391251259504 80.41592500000002,157.75973729796144 80.496075,157.64560499696032 80.57622500000001,157.53284363773474 80.656375,157.42167144524774 80.736525,157.312440619604 80.816675,157.2052410033791 80.896825,157.10027999453777 80.97697500000001,156.9977608681811 81.05712500000001,156.89807823613245 81.13727500000002,156.80124285368817 81.217425,156.70744229321667 81.297575,156.6170947923423 81.377725,156.53015127106266 81.457875,156.44678026487165 81.538025,156.36714295981068 81.61817500000001,156.2916771322924 81.69832500000001,156.22025615662773 81.77847500000001,156.15301834592782 81.858625,156.0908726661387 81.93877499999999,156.03270443834603 82.018925,155.97909236919574 82.099075,155.93014021144666 82.179225,155.8862857056605 82.259375,155.84727724960453 82.33952500000001,155.81319027375716 82.41967500000001,155.78409088734 82.499825,155.76039754308326 82.579975,155.74179747696894 82.660125,155.72798896708323 82.740275,155.7189259090558 82.820425,155.71441786243912 82.900575,155.71441786243912 82.980725,155.7189259090558 83.06087500000001,155.72798896708323 83.141025,155.74179747696894 83.221175,155.76039754308326 83.301325,155.78409088734 83.38147500000001,155.81319027375716 83.461625,155.84727724960453 83.541775,155.8862857056605 83.621925,155.93014021144666 83.70207500000001,155.97909236919574 83.78222500000001,156.03270443834603 83.86237500000001,156.0908726661387 83.942525,156.15301834592782 84.022675,156.22025615662773 84.10282500000001,156.2916771322924 84.182975,156.36714295981068 84.263125,156.44678026487165 84.343275,156.53015127106266 84.42342500000001,156.6170947923423 84.50357500000001,156.70744229321667 84.58372500000002,156.80124285368817 84.663875,156.89807823613248 84.74402500000001,156.9977608681811 84.824175,157.10027999453777 84.904325,157.2052410033791 84.984475,157.312440619604 85.064625,157.42167144524774 85.14477500000001,157.53284363773474 85.22492500000001,157.64560499696032 85.305075,157.75973729796144 85.385225,157.87391251259504 85.46537500000001,157.9901789870521 85.545525,158.10713103994988 85.625675,158.22454220059814 85.705825,158.34219306095116 85.78597500000001,158.4598317678193 85.86612500000001,158.57723047024928 85.94627500000001,158.69416196260553 86.026425,158.81034155219353 86.106575,158.9255864886027 86.18672500000001,159.03967359943363 86.266875,159.15227513495537 86.347025,159.26326430814936 86.427175,159.37242619234345 86.507325,159.47954944596424 86.587475,159.58425849406294 86.667625,159.68650411323324 86.747775,159.78608842394772 86.82792500000001,159.88175483115654 86.90807500000001,159.97521929757966 86.988225,160.06544824819994 87.068375,160.15226704389286 87.148525,160.23524568791004 87.228675,160.31447365535445 87.308825,160.38979749055397 87.388975,160.46107133376447 87.469125,160.52785310421407 87.54927500000001,160.59030813321465 87.62942500000001,160.64831544160765 87.709575,160.70143302256386 87.789725,160.74988011383672 87.86987500000001,160.79356295613027 87.950025,160.83239689797998 88.030175,160.86595247564082 88.110325,160.89451404388385 88.190475,160.91802626345324 88.27062500000001,160.9357161593574 88.350775,160.9475982414785 88.430925,160.95364950367033 88.511075,160.95364950367033 88.591225,160.9475982414785 88.671375,160.9357161593574 88.751525,160.91802626345324 88.831675,160.89451404388385 88.91182500000001,160.86595247564082 88.991975,160.83239689797998 89.072125,160.79356295613027 89.152275,160.74988011383672 89.232425,160.70143302256386 89.31257500000001,160.64831544160765 89.39272500000001,160.59030813321465 89.472875,160.52785310421407 89.553025,160.46107133376447 89.63317500000001,160.38979749055397 89.71332500000001,160.31447365535445 89.793475,160.23524568791004 89.873625,160.15226704389286 89.953775,160.06544824819994 90.033925,159.97521929757966 90.114075,159.88175483115654 90.194225,159.78608842394772 90.274375,159.68650411323324 90.35452500000001,159.58425849406294 90.434675,159.47954944596424 90.514825,159.37242619234345 90.594975,159.26326430814936 90.67512500000001,159.15227513495537 90.75527500000001,159.03967359943363 90.83542500000001,158.9255864886027 90.91557499999999,158.81034155219353 90.995725,158.69416196260553 91.075875,158.57723047024928 91.156025,158.4598317678193 91.236175,158.34219306095116 91.316325,158.22454220059814 91.396475,158.10713103994988 91.476625,157.9901789870521 91.556775,157.87391251259504 91.636925,157.75973729796144 91.71707500000001,157.64560499696032 91.79722500000001,157.53284363773474 91.87737500000001,157.42167144524774 91.957525,157.312440619604 92.03767500000001,157.2052410033791 92.11782500000001,157.10027999453777 92.197975,156.9977608681811 92.278125,156.89807823613245 92.358275,156.80124285368817 92.438425,156.70744229321667 92.518575,156.6170947923423 92.598725,156.53015127106266 92.678875,156.44678026487165 92.75902500000001,156.36714295981068 92.83917500000001,156.2916771322924 92.919325,156.22025615662773 92.999475,156.15301834592782 93.07962500000001,156.0908726661387 93.15977500000001,156.03270443834603 93.239925,155.97909236919574 93.320075,155.93014021144666 93.40022499999999,155.8862857056605 93.480375,155.84727724960453 93.560525,155.81319027375716 93.640675,155.78409088734 93.720825,155.76039754308326 93.80097500000001,155.74179747696894 93.881125,155.72798896708323 93.961275,155.7189259090558 94.041425,155.71441786243912 94.121575,155.71441786243912 94.20172500000001,155.7189259090558 94.28187500000001,155.72798896708323 94.362025,155.74179747696894 94.442175,155.76039754308326 94.522325,155.78409088734 94.602475,155.81272421091506 94.682625,155.84681118676244 94.762775,155.8858196428184 94.842925,155.92967414860456 94.923075,155.97862630635362 95.003225,156.03223837550394 95.083375,156.0904066032966 95.163525,156.15301834592782 95.24367500000001,156.22025615662773 95.32382500000001,156.2916771322924 95.403975,156.36714295981068 95.484125,156.44678026487165 95.564275,156.53015127106266 95.644425,156.6170947923423 95.724575,156.70744229321667 95.804725,156.80124285368817 95.884875,156.89807823613248 95.965025,156.9977608681811 96.045175,157.10027999453777 96.125325,157.2052410033791 96.205475,157.312440619604 96.28562500000001,157.42167144524774 96.365775,157.53284363773474 96.445925,157.64560499696032 96.526075,157.75973729796144 96.60622500000001,157.87391251259504 96.68637500000001,157.9901789870521 96.76652500000002,158.10713103994988 96.84667499999999,158.22454220059814 96.926825,158.34219306095116 97.006975,158.4598317678193 97.087125,158.57723047024928 97.167275,158.69416196260553 97.247425,158.81034155219353 97.327575,158.9255864886027 97.407725,159.03967359943363 97.487875,159.15227513495537 97.568025,159.26326430814936 97.64817500000001,159.37242619234345 97.72832500000001,159.47954944596424 97.808475,159.58425849406294 97.888625,159.68650411323324 97.968775,159.78608842394772 98.048925,159.88175483115654 98.129075,159.97521929757966 98.209225,160.06544824819994 98.28937499999999,160.15226704389286 98.369525,160.23524568791004 98.449675,160.31447365535445 98.529825,160.38979749055397 98.609975,160.46107133376447 98.69012500000001,160.52785310421407 98.77027500000001,160.59030813321465 98.850425,160.64831544160765 98.930575,160.70143302256386 99.01072500000001,160.74988011383672 99.09087500000001,160.79356295613027 99.171025,160.83239689797998 99.251175,160.86595247564082 99.33132499999999,160.89451404388385 99.411475,160.91802626345324 99.491625,160.9357161593574 99.571775,160.9475982414785 99.651925,160.95364950367033 99.73207500000001,160.95364950367033 99.812225,160.9475982414785 99.892375,160.9357161593574 99.972525,160.91802626345324 100.05267500000001,160.89451404388385 100.13282500000001,160.86595247564082 100.21297500000001,160.83239689797998 100.29312499999999,160.79356295613027 100.37327499999999,160.74988011383672 100.453425,160.70143302256386 100.533575,160.64831544160765 100.613725,160.59030813321465 100.693875,160.52785310421407 100.774025,160.46107133376447 100.854175,160.38979749055397 100.934325,160.31447365535445 101.014475,160.23524568791004 101.09462500000001,160.15226704389286 101.17477500000001,160.06544824819994 101.25492500000001,159.97521929757966 101.335075,159.88175483115654 101.415225,159.78608842394772 101.49537500000001,159.68650411323324 101.575525,159.58425849406294 101.655675,159.47954944596424 101.73582499999999,159.37242619234345 101.815975,159.26326430814936 101.896125,159.15227513495537 101.976275,159.03967359943363 102.056425,158.9255864886027 102.13657500000001,158.81034155219353 102.21672500000001,158.69416196260553 102.296875,158.57723047024928 102.377025,158.4598317678193 102.457175,158.34219306095116 102.53732500000001,158.22454220059814 102.617475,158.10713103994988 102.697625,157.9901789870521 102.77777499999999,157.87391251259504 102.857925,157.75973729796144 102.938075,157.64560499696032 103.018225,157.53284363773474 103.098375,157.42167144524774 103.17852500000001,157.312440619604 103.258675,157.2052410033791 103.338825,157.10027999453777 103.418975,156.9977608681811 103.499125,156.89807823613245 103.57927500000001,156.80124285368817 103.65942500000001,156.70744229321667 103.739575,156.6170947923423 103.819725,156.53015127106266 103.899875,156.44678026487165 103.980025,156.36714295981068 104.060175,156.2916771322924 104.140325,156.22025615662773 104.220475,156.15301834592782 104.300625,156.0908726661387 104.380775,156.03270443834603 104.460925,155.97909236919574 104.541075,155.93014021144666 104.62122500000001,155.8862857056605 104.70137500000001,155.84727724960453 104.781525,155.81319027375716 104.861675,155.78409088734 104.941825,155.76039754308326 105.021975,155.74179747696894 105.102125,155.72798896708323 105.182275,155.7189259090558 105.262425,155.71441786243912 105.342575,155.71441786243912 105.422725,155.7189259090558 105.502875,155.72798896708323 105.583025,155.74179747696894 105.66317500000001,155.76039754308326 105.743325,155.78409088734 105.823475,155.81319027375716 105.903625,155.84727724960453 105.98377500000001,155.8862857056605 106.06392500000001,155.93014021144666 106.14407500000002,155.97909236919574 106.22422499999999,156.03270443834603 106.304375,156.0908726661387 106.384525,156.15301834592782 106.464675,156.22025615662773 106.544825,156.2916771322924 106.624975,156.36714295981068 106.705125,156.44678026487165 106.785275,156.53015127106266 106.865425,156.6170947923423 106.945575,156.70744229321667 107.02572500000001,156.80124285368817 107.10587500000001,156.89807823613248 107.186025,156.9977608681811 107.266175,157.10027999453777 107.346325,157.2052410033791 107.426475,157.312440619604 107.506625,157.42167144524774 107.586775,157.53284363773474 107.66692499999999,157.64560499696032 107.747075,157.75973729796144 107.827225,157.87391251259504 107.907375,157.9901789870521 107.987525,158.10713103994988 108.06767500000001,158.22454220059814 108.14782500000001,158.34219306095116 108.227975,158.4598317678193 108.308125,158.57723047024928 108.38827500000001,158.69416196260553 108.46842500000001,158.81034155219353 108.548575,158.9255864886027 108.628725,159.03967359943363 108.70887499999999,159.15227513495537 108.789025,159.26326430814936 108.869175,159.37242619234345 108.949325,159.47954944596424 109.029475,159.58425849406294 109.10962500000001,159.68650411323324 109.189775,159.78608842394772 109.269925,159.88175483115654 109.350075,159.97521929757966 109.43022500000001,160.06544824819994 109.51037500000001,160.15226704389286 109.59052500000001,160.23524568791004 109.67067499999999,160.31447365535445 109.75082499999999,160.38979749055397 109.830975,160.46107133376447 109.911125,160.52785310421407 109.991275,160.59030813321465 110.071425,160.64831544160765 110.151575,160.70143302256386 110.231725,160.74988011383672 110.311875,160.79356295613027 110.392025,160.83239689797998 110.47217500000001,160.86595247564082 110.55232500000001,160.89451404388385 110.632475,160.91802626345324 110.712625,160.9357161593574 110.792775,160.9475982414785 110.87292500000001,160.95364950367033 110.953075,160.95364950367033 111.033225,160.9475982414785 111.11337499999999,160.9357161593574 111.193525,160.91802626345324 111.273675,160.89451404388385 111.353825,160.86595247564082 111.433975,160.83239689797998 111.514125,160.79356295613027 111.59427500000001,160.74988011383672 111.674425,160.70143302256386 111.754575,160.64831544160765 111.834725,160.59030813321465 111.91487500000001,160.52785310421407 111.995025,160.46107133376447 112.075175,160.38979749055397 112.15532499999999,160.31447365535445 112.235475,160.23524568791004 112.315625,160.15226704389286 112.395775,160.06544824819994 112.475925,159.97521929757966 112.556075,159.88175483115654 112.636225,159.78608842394772 112.716375,159.68650411323324 112.796525,159.58425849406294 112.876675,159.47954944596424 112.95682500000001,159.37242619234345 113.03697500000001,159.26326430814936 113.117125,159.15227513495537 113.197275,159.03967359943363 113.277425,158.9255864886027 113.357575,158.81034155219353 113.437725,158.69416196260553 113.517875,158.57723047024928 113.59802499999999,158.4598317678193 113.678175,158.34219306095116 113.758325,158.22454220059814 113.838475,158.10713103994988 113.918625,157.9901789870521 113.99877500000001,157.87391251259504 114.078925,157.75973729796144 114.159075,157.64560499696032 114.239225,157.53284363773474 114.319375,157.42167144524774 114.399525,157.312440619604 114.479675,157.2052410033791 114.55982499999999,157.10027999453777 114.63997499999999,156.9977608681811 114.720125,156.89807823613245 114.800275,156.80124285368817 114.880425,156.70744229321667 114.960575,156.6170947923423 115.04072500000001,156.53015127106266 115.120875,156.44678026487165 115.201025,156.36714295981068 115.281175,156.2916771322924 115.36132500000001,156.22025615662773 115.44147500000001,156.15301834592782 115.52162500000001,156.0908726661387 115.60177499999999,156.03270443834603 115.68192499999999,155.97909236919574 115.762075,155.93014021144666 115.842225,155.8862857056605 115.922375,155.84727724960453 116.002525,155.81319027375716 116.082675,155.78409088734 116.162825,155.76039754308326 116.242975,155.74179747696894 116.323125,155.72798896708323 116.40327500000001,155.7189259090558 116.48342500000001,155.71441786243912 116.563575,155.71441786243912 116.643725,155.7189259090558 116.72387499999999,155.72798896708323 116.804025,155.74179747696894 116.884175,155.76039754308326 116.964325,155.78409088734 117.04447499999999,155.81272421091506 117.124625,155.84681118676244 117.204775,155.8858196428184 117.284925,155.92967414860456 117.365075,155.97862630635362 117.44522500000001,156.03223837550394 117.525375,156.0904066032966 117.605525,156.15301834592782 117.685675,156.22025615662773 117.765825,156.2916771322924 117.84597500000001,156.36714295981068 117.926125,156.44678026487165 118.00627499999999,156.53015127106266 118.08642499999999,156.6170947923423 118.166575,156.70744229321667 118.246725,156.80124285368817 118.326875,156.89807823613248 118.407025,156.9977608681811 118.48717500000001,157.10027999453777 118.567325,157.2052410033791 118.647475,157.312440619604 118.727625,157.42167144524774 118.807775,157.53284363773474 118.88792500000001,157.64560499696032 118.96807500000001,157.75973729796144 119.04822499999999,157.87391251259504 119.12837499999999,157.9901789870521 119.208525,158.10713103994988 119.288675,158.22454220059814 119.368825,158.34219306095116 119.448975,158.4598317678193 119.529125,158.57723047024928 119.609275,158.69416196260553 119.689425,158.81034155219353 119.769575,158.9255864886027 119.849725,159.03967359943363 119.92987500000001,159.15227513495537 120.010025,159.26326430814936 120.090175,159.37242619234345 120.170325,159.47954944596424 120.25047500000001,159.58425849406294 120.330625,159.68650411323324 120.410775,159.78608842394772 120.49092499999999,159.88175483115654 120.571075,159.97521929757966 120.651225,160.06544824819994 120.731375,160.15226704389286 120.811525,160.23524568791004 120.891675,160.31447365535445 120.971825,160.38979749055397 121.051975,160.46107133376447 121.132125,160.52785310421407 121.212275,160.59030813321465 121.29242500000001,160.64831544160765 121.372575,160.70143302256386 121.45272499999999,160.74988011383672 121.53287499999999,160.79356295613027 121.613025,160.83239689797998 121.693175,160.86595247564082 121.773325,160.89451404388385 121.853475,160.91802626345324 121.933625,160.9357161593574 122.013775,160.9475982414785 122.093925,160.95364950367033 122.174075,160.95364950367033 122.254225,160.9475982414785 122.33437500000001,160.9357161593574 122.41452500000001,160.91802626345324 122.494675,160.89451404388385 122.574825,160.86595247564082 122.654975,160.83239689797998 122.735125,160.79356295613027 122.815275,160.74988011383672 122.895425,160.70143302256386 122.97557499999999,160.64831544160765 123.055725,160.59030813321465 123.135875,160.52785310421407 123.216025,160.46107133376447 123.296175,160.38979749055397 123.37632500000001,160.31447365535445 123.456475,160.23524568791004 123.536625,160.15226704389286 123.616775,160.06544824819994 123.696925,159.97521929757966 123.777075,159.88175483115654 123.857225,159.78608842394772 123.93737499999999,159.68650411323324 124.01752499999999,159.58425849406294 124.097675,159.47954944596424 124.177825,159.37242619234345 124.257975,159.26326430814936 124.338125,159.15227513495537 124.41827500000001,159.03967359943363 124.498425,158.9255864886027 124.578575,158.81034155219353 124.658725,158.69416196260553 124.73887500000001,158.57723047024928 124.81902500000001,158.4598317678193 124.89917500000001,158.34219306095116 124.97932499999999,158.22454220059814 125.05947499999999,158.10713103994988 125.139625,157.9901789870521 125.219775,157.87391251259504 125.299925,157.75973729796144 125.380075,157.64560499696032 125.460225,157.53284363773474 125.540375,157.42167144524774 125.620525,157.312440619604 125.700675,157.2052410033791 125.78082500000001,157.10027999453777 125.86097500000001,156.9977608681811 125.941125,156.89807823613245 126.021275,156.80124285368817 126.10142499999999,156.70744229321667 126.181575,156.6170947923423 126.261725,156.53015127106266 126.341875,156.44678026487165 126.42202499999999,156.36714295981068 126.502175,156.2916771322924 126.582325,156.22025615662773 126.662475,156.15301834592782 126.742625,156.0908726661387 126.82277500000001,156.03270443834603 126.902925,155.97909236919574 126.983075,155.93014021144666 127.063225,155.8862857056605 127.143375,155.84727724960453 127.22352500000001,155.81319027375716 127.303675,155.78409088734 127.38382499999999,155.76039754308326 127.46397499999999,155.74179747696894 127.544125,155.72798896708323 127.624275,155.7189259090558 127.704425,155.71441786243912 127.784575,155.71441786243912 127.864725,155.7189259090558 127.944875,155.72798896708323 128.025025,155.74179747696894 128.105175,155.76039754308326 128.185325,155.78409088734 128.265475,155.81319027375716 128.345625,155.84727724960453 128.425775,155.8862857056605 128.505925,155.93014021144666 128.586075,155.97909236919574 128.666225,156.03270443834603 128.746375,156.0908726661387 128.826525,156.15301834592782 128.906675,156.22025615662773 128.986825,156.2916771322924 129.066975,156.36714295981068 129.14712500000002,156.44678026487165 129.22727500000002,156.53015127106266 129.30742500000002,156.6170947923423 129.387575,156.70744229321667 129.467725,156.80124285368817 129.547875,156.89807823613248 129.628025,156.9977608681811 129.70817499999998,157.10027999453777 129.788325,157.2052410033791 129.868475,157.312440619604 129.948625,157.42167144524774 130.028775,157.53284363773474 130.108925,157.64560499696032 130.189075,157.75973729796144 130.269225,157.87391251259504 130.349375,157.9901789870521 130.429525,158.10713103994988 130.50967500000002,158.22454220059814 130.58982500000002,158.34219306095116 130.66997500000002,158.4598317678193 130.750125,158.57723047024928 130.83027499999997,158.69416196260553 130.91042499999998,158.81034155219353 130.99057499999998,158.9255864886027 131.07072499999998,159.03967359943363 131.15087499999998,159.15227513495537 131.231025,159.26326430814936 131.311175,159.37242619234345 131.391325,159.47954944596424 131.471475,159.58425849406294 131.551625,159.68650411323324 131.631775,159.78608842394772 131.711925,159.88175483115654 131.792075,159.97521929757966 131.87222500000001,160.06544824819994 131.95237500000002,160.15226704389286 132.032525,160.23524568791004 132.112675,160.31447365535445 132.192825,160.38979749055397 132.272975,160.46107133376447 132.35312499999998,160.52785310421407 132.43327499999998,160.59030813321465 132.51342499999998,160.64831544160765 132.593575,160.70143302256386 132.673725,160.74988011383672 132.753875,160.79356295613027 132.834025,160.83239689797998 132.914175,160.86595247564082 132.994325,160.89451404388385 133.074475,160.91802626345324 133.154625,160.9360800546215 133.234775,160.94941704111153 133.314925,160.9587392255978 133.355,160.9587392255978" stroke="black" stroke-width="0.35" /><polyline fill="none" points="21.14500000000001,162.28558213756085 133.355,162.28558213756085" stroke="black" stroke-width="0.35" /><polyline fill="none" points="21.14500000000001,162.28558213756085 21.14500000000001,160.9587392255978" stroke="black" stroke-width="0.35" /><polyline fill="none" points="133.355,162.28558213756085 133.355,160.9587392255978" stroke="black" stroke-width="0.35" /><line stroke="black" stroke-width="0.2" x1="21.14500000000001" x2="21.14500000000001" y1="162.28558213756085" y2="172.28558213756085" /><line stroke="black" stroke-width="0.2" x1="133.355" x2="133.355" y1="162.28558213756085" y2="172.28558213756085" /><line stroke="black" stroke-width="0.2" x1="21.14500000000001" x2="133.355" y1="172.28558213756085" y2="172.28558213756085" /><polygon fill="black" points="21.14500000000001,172.28558213756085 22.34500000000001,171.53558213756085 22.34500000000001,173.03558213756085" /><polygon fill="black" points="133.355,172.28558213756085 132.155,171.53558213756085 132.155,173.03558213756085" /><text fill="black" font-size="1mm" stroke="white" stroke-linejoin="round" stroke-width="0.8" text-anchor="middle" x="77.25" y="170.48558213756084">213.21 mm</text><text fill="black" font-size="1mm" text-anchor="middle" x="77.25" y="170.48558213756084">213.21 mm</text><line stroke="black" stroke-width="0.2" x1="133.355" x2="141.5" y1="155.71441786243912" y2="155.71441786243912" /><line stroke="black" stroke-width="0.2" x1="133.355" x2="141.5" y1="162.28558213756085" y2="162.28558213756085" /><line stroke="black" stroke-width="0.2" x1="141.5" x2="141.5" y1="155.71441786243912" y2="162.28558213756085" /><polygon fill="black" points="141.5,155.71441786243912 140.75,156.9144178624391 142.25,156.9144178624391" /><polygon fill="black" points="141.5,162.28558213756085 140.75,161.08558213756086 142.25,161.08558213756086" /><text fill="black" font-size="1mm" stroke="white" stroke-linejoin="round" stroke-width="0.8" text-anchor="middle" transform="rotate(-90,143.7,159.0)" x="143.7" y="159.0">12.50 mm</text><text fill="black" font-size="1mm" text-anchor="middle" transform="rotate(-90,143.7,159.0)" x="143.7" y="159.0">12.50 mm</text><text fill="black" font-size="1mm" stroke="white" stroke-linejoin="round" stroke-width="0.8" text-anchor="start" x="12" y="112.0">Pitch = 21.32 mm (L/10)</text><text fill="black" font-size="1mm" text-anchor="start" x="12" y="112.0">Pitch = 21.32 mm (L/10)</text><rect fill="none" height="104.0" stroke="black" stroke-width="0.2" width="134.5" x="152.5" y="96.0" /><text font-size="2mm" x="154.5" y="103.0">End view (YZ)</text><polyline fill="none" points="213.17131504805025,158.28934046831955 226.32868495194973,158.28934046831955 226.32868495194973,151.71065953168045 213.17131504805025,151.71065953168045 213.17131504805025,158.28934046831955" stroke="black" stroke-width="0.35" /><polyline fill="none" points="213.17131504805025,156.97358879817278 226.32868495194973,156.97358879817278" stroke="black" stroke-width="0.35" /><line stroke="black" stroke-width="0.2" x1="213.17131504805025" x2="213.17131504805025" y1="158.28934046831955" y2="168.28934046831955" /><line stroke="black" stroke-width="0.2" x1="226.32868495194973" x2="226.32868495194973" y1="158.28934046831955" y2="168.28934046831955" /><line stroke="black" stroke-width="0.2" x1="213.17131504805025" x2="226.32868495194973" y1="168.28934046831955" y2="168.28934046831955" /><polygon fill="black" points="213.17131504805025,168.28934046831955 214.37131504805023,167.53934046831955 214.37131504805023,169.03934046831955" /><polygon fill="black" points="226.32868495194973,168.28934046831955 225.12868495194974,167.53934046831955 225.12868495194974,169.03934046831955" /><text fill="black" font-size="1mm" stroke="white" stroke-linejoin="round" stroke-width="0.8" text-anchor="middle" x="219.75" y="166.48934046831954">25.00 mm</text><text fill="black" font-size="1mm" text-anchor="middle" x="219.75" y="166.48934046831954">25.00 mm</text><line stroke="black" stroke-width="0.2" x1="226.32868495194973" x2="236.32868495194973" y1="151.71065953168045" y2="151.71065953168045" /><line stroke="black" stroke-width="0.2" x1="226.32868495194973" x2="236.32868495194973" y1="158.28934046831955" y2="158.28934046831955" /><line stroke="black" stroke-width="0.2" x1="236.32868495194973" x2="236.32868495194973" y1="151.71065953168045" y2="158.28934046831955" /><polygon fill="black" points="236.32868495194973,151.71065953168045 235.57868495194973,152.91065953168044 237.07868495194973,152.91065953168044" /><polygon fill="black" points="236.32868495194973,158.28934046831955 235.57868495194973,157.08934046831956 237.07868495194973,157.08934046831956" /><text fill="black" font-size="1mm" stroke="white" stroke-linejoin="round" stroke-width="0.8" text-anchor="middle" transform="rotate(-90,238.5286849519497,155.0)" x="238.5286849519497" y="155.0">12.50 mm</text><text fill="black" font-size="1mm" text-anchor="middle" transform="rotate(-90,238.5286849519497,155.0)" x="238.5286849519497" y="155.0">12.50 mm</text></svg>