<?xml version="1.0" encoding="utf-8" ?>
<svg baseProfile="full" height="210mm" version="1.1" viewBox="0 0 297 210" width="297mm" xmlns="http://www.w3.org/2000/svg" xmlns:ev="http://www.w3.org/2001/xml-events" xmlns:xlink="http://www.w3.org/1999/xlink"><defs /><text font-size="4mm" x="10" y="14">STL views + dimensions (unit scale x1.0)</text><rect fill="none" height="60.0" stroke="black" stroke-width="0.2" width="134.5" x="152.5" y="28" /><text font-size="2mm" x="154.5" y="35">Notes</text><text font-size="1mm" x="154.5" y="44">Drawing scale: 0.5263 mm/mm</text><rect fill="none" height="60.0" stroke="black" stroke-width="0.2" width="134.5" x="10" y="28" /><text font-size="2mm" x="12" y="35">Top view (XY)</text><polyline fill="none" points="21.14500000000001,71.84183235002773 133.355,71.84183235002773 133.355,58.15816764997226 21.14500000000001,58.15816764997226 21.14500000000001,71.84183235002773" stroke="black" stroke-width="0.35" /><line stroke="black" stroke-width="0.2" x1="21.14500000000001" x2="21.14500000000001" y1="71.84183235002773" y2="81.84183235002773" /><line stroke="black" stroke-width="0.2" x1="133.355" x2="133.355" y1="71.84183235002773" y2="81.84183235002773" /><line stroke="black" stroke-width="0.2" x1="21.14500000000001" x2="133.355" y1="81.84183235002773" y2="81.84183235002773" /><polygon fill="black" points="21.14500000000001,81.84183235002773 22.34500000000001,81.09183235002773 22.34500000000001,82.59183235002773" /><polygon fill="black" points="133.355,81.84183235002773 132.155,81.09183235002773 132.155,82.59183235002773" /><text fill="black" font-size="1mm" stroke="white" stroke-linejoin="round" stroke-width="0.8" text-anchor="middle" x="77.25" y="80.04183235002773">213.21 mm</text><text fill="black" font-size="1mm" text-anchor="middle" x="77.25" y="80.04183235002773">213.21 mm</text><line stroke="black" stroke-width="0.2" x1="133.355" x2="141.5" y1="58.15816764997226" y2="58.15816764997226" /><line stroke="black" stroke-width="0.2" x1="133.355" x2="141.5" y1="71.84183235002773" y2="71.84183235002773" /><line stroke="black" stroke-width="0.2" x1="141.5" x2="141.5" y1="58.15816764997226" y2="71.84183235002773" /><polygon fill="black" points="141.5,58.15816764997226 140.75,59.358167649972266 142.25,59.358167649972266" /><polygon fill="black" points="141.5,71.84183235002773 140.75,70.64183235002773 142.25,70.64183235002773" /><text fill="black" font-size="1mm" stroke="white" stroke-linejoin="round" stroke-width="0.8" text-anchor="middle" transform="rotate(-90,143.7,65.0)" x="143.7" y="65.0">26.00 mm</text><text fill="black" font-size="1mm" text-anchor="middle" transform="rotate(-90,143.7,65.0)" x="143.7" y="65.0">26.00 mm</text><rect fill="none" height="104.0" stroke="black" stroke-width="0.2" width="134.5" x="10" y="96.0" /><text font-size="2mm" x="12" y="103.0">Side view (XZ)</text><polyline fill="none" points="21.14500000000001,158.46048810081672 21.21513125000001,158.46048810081672 21.35539375000001,157.7865603707186 21.49565625000001,157.0977555561908 21.63591875000001,156.39584792262224 21.77618125000001,156.27452832312918 21.91644375000001,156.16712536010115 22.05670625000001,156.07401023466645 22.19696875000001,155.99289565379996 22.33723125000001,155.92294700650447 22.47749375000001,155.863895625477 22.61775625000001,155.8153892389109 22.75801875000001,155.77695812716334 22.89828125000001,155.74892960975336 23.03854375000001,155.7294524850722 23.17880625000001,155.71943865884685 23.31906875000001,155.72074205736126 23.45933125000001,155.7350099618053 23.59959375000001,155.76263788027703 23.73985625000001,155.8045843964896 23.88011875000001,155.8629591259723 24.02038125000001,155.93814811216237 24.16064375000001,156.02979664538594 24.30090625000001,156.13709470842352 24.44116875000001,156.25716468588394 24.58143125000001,156.39188574314662 24.72169375000001,156.53915740668415 24.86195625000001,156.69542702285523 25.00221875000001,156.86132893903886 25.14248125000001,157.03658075700375 25.28274375000001,157.2209830735555 25.42300625000001,157.4133709825457 25.56326875000001,157.60882364908358 25.70353125000001,157.8113559535969 25.84379375000001,158.01714578641955 25.98405625000001,158.22572679790156 26.124318750000008,158.43618991454392 26.26458125000001,158.64251708197253 26.40484375000001,158.8462711164499 26.54510625000001,159.04902474703675 26.68536875000001,159.24283265987935 26.82563125000001,159.43196797007104 26.96589375000001,159.6133901284437 27.106156250000012,159.78446466100587 27.24641875000001,159.9489559214822 27.38668125000001,160.10290497043007 27.526943750000008,160.24525591559248 27.66720625000001,160.37681171378512 27.80746875000001,160.4962871698326 27.94773125000001,160.60262307638192 28.08799375000001,160.69553004313875 28.22825625000001,160.7731987458091 28.36851875000001,160.83638284366714 28.50878125000001,160.88278467487484 28.64904375000001,160.91422439865448 28.78930625000001,160.93063479622433 28.92956875000001,160.93409142523544 29.06983125000001,160.92555296911152 29.21009375000001,160.90535926384788 29.35035625000001,160.87532850593016 29.49061875000001,160.83715033116442 29.63088125000001,160.79065128566182 29.77114375000001,160.73557739472247 29.91140625000001,160.6712648487375 30.05166875000001,160.59733321494932 30.19193125000001,160.5141511950001 30.33219375000001,160.41901506871537 30.472456250000008,160.31141740345367 30.61271875000001,160.19094302685025 30.75298125000001,160.05493273221336 30.89324375000001,159.90038438470842 31.03350625000001,159.7213189627243 31.173768750000008,159.51112267602178 31.314031250000006,159.2527278820741 31.454293750000012,158.95444385396362 31.59455625000001,158.63256242780267 31.73481875000001,158.29931812066891 31.87508125000001,157.96316769660876 32.015343750000014,157.63975473417216 32.15560625000001,157.33929326942612 32.29586875000001,157.08438234899964 32.43613125000001,156.8723099532145 32.57639375000001,156.690404012649 32.716656250000014,156.53232277435973 32.856918750000006,156.39584792262224 32.99718125000001,156.27452832312918 33.13744375000001,156.16712536010115 33.27770625000001,156.07401023466645 33.41796875000001,155.99289565379996 33.55823125000001,155.92294700650447 33.69849375000001,155.863895625477 33.83875625000001,155.8153892389109 33.97901875000001,155.77695812716334 34.11928125000001,155.74892960975336 34.259543750000006,155.7294524850722 34.39980625000001,155.71943865884685 34.54006875000001,155.72074205736126 34.68033125000001,155.7350099618053 34.820593750000015,155.76263788027703 34.960856250000006,155.8045843964896 35.10111875000001,155.8629591259723 35.24138125000001,155.93814811216237 35.38164375000001,156.02979664538594 35.52190625000001,156.13709470842352 35.662168750000006,156.25716468588394 35.80243125000001,156.39188574314662 35.94269375000001,156.53915740668415 36.08295625000001,156.69542702285523 36.22321875000001,156.86132893903886 36.36348125000001,157.03658075700375 36.50374375000001,157.2209830735555 36.644006250000004,157.4133709825457 36.78426875000001,157.60882364908358 36.92453125000001,157.8113559535969 37.06479375000001,158.01714578641955 37.20505625000001,158.22572679790156 37.34531875000001,158.43618991454392 37.48558125000001,158.64251708197253 37.62584375000001,158.8462711164499 37.76610625000001,159.04902474703675 37.90636875000001,159.24283265987935 38.046631250000004,159.43196797007104 38.18689375000001,159.6133901284437 38.327156250000016,159.78446466100587 38.46741875000001,159.9489559214822 38.607681250000006,160.10290497043007 38.747943750000005,160.24525591559248 38.88820625000001,160.37681171378512 39.02846875000001,160.4962871698326 39.16873125000001,160.60262307638192 39.30899375000001,160.69553004313875 39.449256250000005,160.7731987458091 39.58951875000001,160.83638284366714 39.72978125000001,160.88278467487484 39.87004375000001,160.91422439865448 40.01030625000001,160.93063479622433 40.15056875000001,160.93409142523544 40.29083125000001,160.92555296911152 40.43109375,160.90535926384788 40.57135625000001,160.87532850593016 40.711618750000014,160.83715033116442 40.851881250000005,160.79065128566182 40.99214375000001,160.73557739472247 41.13240625000001,160.6712648487375 41.27266875000001,160.59733321494932 41.412931250000014,160.5141511950001 41.553193750000005,160.41901506871537 41.69345625000001,160.31141740345367 41.83371875000001,160.19094302685025 41.97398125000001,160.05493273221336 42.114243750000014,159.90038438470842 42.254506250000006,159.7213189627243 42.39476875000001,159.51112267602178 42.53503125000001,159.2527278820741 42.67529375000001,158.95444385396362 42.81555625000001,158.63256242780267 42.955818750000006,158.29931812066891 43.09608125000001,157.96662724523466 43.23634375000001,157.64321428279808 43.37660625000001,157.34275281805205 43.51686875000001,157.08784189762554 43.657131250000006,156.8757695018404 43.79739375000001,156.69386356127492 43.93765625,156.53578232298565 44.07791875000001,156.39584792262224 44.218181250000015,156.27452832312918 44.358443750000006,156.16712536010115 44.498706250000005,156.07401023466645 44.638968750000004,155.99289565379996 44.77923125000001,155.92294700650447 44.91949375000001,155.863895625477 45.05975625000001,155.8153892389109 45.20001875000001,155.77695812716334 45.34028125000001,155.74892960975336 45.48054375000001,155.7294524850722 45.62080625000001,155.71943865884685 45.76106875000001,155.72074205736126 45.90133125000001,155.7350099618053 46.04159375000001,155.76263788027703 46.18185625000001,155.8045843964896 46.32211875000001,155.8629591259723 46.46238125000001,155.93814811216237 46.60264375000001,156.02979664538594 46.742906250000004,156.13709470842352 46.88316875000001,156.25716468588394 47.02343125000001,156.39188574314662 47.16369375000001,156.53915740668415 47.30395625000001,156.69542702285523 47.444218750000005,156.86132893903886 47.58448125000001,157.03658075700375 47.72474375000001,157.2209830735555 47.86500625000001,157.4133709825457 48.005268750000006,157.60882364908358 48.145531250000005,157.8113559535969 48.28579375000001,158.01714578641955 48.426056250000016,158.22572679790156 48.56631875000001,158.43618991454392 48.706581250000006,158.64251708197253 48.846843750000005,158.8462711164499 48.98710625000001,159.04902474703675 49.12736875000001,159.24283265987935 49.26763125000001,159.43196797007104 49.407893750000014,159.6133901284437 49.54815625000001,159.78446466100587 49.68841875000001,159.9489559214822 49.82868125,160.10290497043007 49.96894375000001,160.24525591559248 50.109206250000014,160.37681171378512 50.249468750000005,160.4962871698326 50.38973125000001,160.60262307638192 50.52999375000001,160.69553004313875 50.67025625000001,160.7731987458091 50.81051875000001,160.83638284366714 50.950781250000006,160.88278467487484 51.09104375000001,160.91422439865448 51.23130625000001,160.93063479622433 51.37156875000001,160.93409142523544 51.511831250000014,160.92555296911152 51.652093750000006,160.90535926384788 51.79235625000001,160.87532850593016 51.93261875000001,160.83715033116442 52.07288125000001,160.79065128566182 52.21314375000001,160.73557739472247 52.353406250000006,160.6712648487375 52.49366875000001,160.59733321494932 52.63393125000001,160.5141511950001 52.77419375000001,160.41901506871537 52.91445625000001,160.31141740345367 53.054718750000006,160.19094302685025 53.194981250000005,160.05493273221336 53.335243750000004,159.90038438470842 53.47550625000001,159.7213189627243 53.61576875000001,159.51112267602178 53.75603125000001,159.2527278820741 53.896293750000005,158.95444385396362 54.03655625000001,158.63256242780267 54.17681875000001,158.29931812066891 54.31708125000001,157.96662724523466 54.45734375000001,157.64321428279808 54.597606250000005,157.34275281805205 54.73786875000001,157.08784189762554 54.87813125000001,156.8757695018404 55.018393750000016,156.69386356127492 55.15865625000001,156.53578232298565 55.298918750000006,156.39584792262224 55.43918125000001,156.27452832312918 55.57944375,156.16712536010115 55.71970625000001,156.07401023466645 55.85996875000001,155.99289565379996 56.00023125000001,155.92294700650447 56.14049375000001,155.863895625477 56.28075625,155.8153892389109 56.42101875000001,155.77695812716334 56.56128125000001,155.74892960975336 56.701543750000006,155.7294524850722 56.841806250000005,155.71943865884685 56.98206875000001,155.72074205736126 57.12233125000001,155.7350099618053 57.26259375000001,155.76263788027703 57.40285625000001,155.8045843964896 57.543118750000005,155.8629591259723 57.68338125000001,155.93814811216237 57.82364375000001,156.02979664538594 57.96390625000001,156.13709470842352 58.10416875000001,156.25716468588394 58.244431250000005,156.39188574314662 58.38469375000001,156.53915740668415 58.52495625000001,156.69542702285523 58.66521875000001,156.86132893903886 58.80548125000001,157.03658075700375 58.94574375000001,157.2209830735555 59.086006250000004,157.4133709825457 59.22626875,157.60882364908358 59.36653125000001,157.8113559535969 59.50679375000001,158.01714578641955 59.64705625000001,158.22572679790156 59.787318750000004,158.43618991454392 59.92758125000001,158.64251708197253 60.06784375000001,158.8462711164499 60.208106250000014,159.04902474703675 60.348368750000006,159.24283265987935 60.488631250000005,159.43196797007104 60.62889375000001,159.6133901284437 60.76915625000001,159.78446466100587 60.909418750000015,159.9489559214822 61.049681250000006,160.10290497043007 61.18994375000001,160.24525591559248 61.33020625000001,160.37681171378512 61.47046875,160.4962871698326 61.61073125000001,160.60262307638192 61.750993750000006,160.69553004313875 61.89125625000001,160.7731987458091 62.03151875000001,160.83638284366714 62.17178125000001,160.88278467487484 62.31204375000001,160.91422439865448 62.45230625000001,160.93063479622433 62.592568750000005,160.93409142523544 62.732831250000004,160.92555296911152 62.87309375000001,160.90535926384788 63.01335625000001,160.87532850593016 63.153618750000014,160.83715033116442 63.29388125000001,160.79065128566182 63.434143750000004,160.73557739472247 63.57440625000001,160.6712648487375 63.71466875000001,160.59733321494932 63.85493125000001,160.5141511950001 63.995193750000006,160.41901506871537 64.13545625,160.31141740345367 64.27571875000001,160.19094302685025 64.41598125000002,160.05493273221336 64.55624375000001,159.90038438470842 64.69650625,159.7213189627243 64.83676875,159.51112267602178 64.97703125000001,159.2527278820741 65.11729375000002,158.95444385396362 65.25755625000001,158.63256242780267 65.39781875,158.29931812066891 65.53808125,157.96662724523466 65.67834375000001,157.64321428279808 65.81860625000002,157.34275281805205 65.95886875000001,157.08784189762554 66.09913125000001,156.8757695018404 66.23939375,156.69386356127492 66.37965625000001,156.53578232298565 66.51991875000002,156.39584792262224 66.66018125000001,156.27452832312918 66.80044375000001,156.16712536010115 66.94070625,156.07401023466645 67.08096875000001,155.99289565379996 67.22123125000002,155.92294700650447 67.36149375,155.863895625477 67.50175625,155.8153892389109 67.64201875,155.77695812716334 67.78228125000001,155.74892960975336 67.92254375000002,155.7294524850722 68.06280625000001,155.71943865884685 68.20306875,155.72074205736126 68.34333125,155.7350099618053 68.48359375000001,155.76263788027703 68.62385625,155.8045843964896 68.76411875000001,155.8629591259723 68.90438125,155.93814811216237 69.04464375,156.02979664538594 69.18490625000001,156.13709470842352 69.32516875000002,156.25716468588394 69.46543125000001,156.39188574314662 69.60569375,156.53915740668415 69.74595625,156.69542702285523 69.88621875000001,156.86132893903886 70.02648125000002,157.03658075700375 70.16674375000001,157.2209830735555 70.30700625000001,157.4133709825457 70.44726875,157.60882364908358 70.58753125000001,157.8113559535969 70.72779375000002,158.01714578641955 70.86805625,158.22572679790156 71.00831875,158.43618991454392 71.14858125,158.64251708197253 71.28884375000001,158.8462711164499 71.42910625000002,159.04902474703675 71.56936875,159.24283265987935 71.70963125,159.43196797007104 71.84989375,159.6133901284437 71.99015625000001,159.78446466100587 72.13041875,159.9489559214822 72.27068125000001,160.10290497043007 72.41094375,160.24525591559248 72.55120625,160.37681171378512 72.69146875000001,160.4962871698326 72.83173125,160.60262307638192 72.97199375000001,160.69553004313875 73.11225625,160.7731987458091 73.25251875000001,160.83638284366714 73.39278125000001,160.88278467487484 73.53304375,160.91422439865448 73.67330625000001,160.93063479622433 73.81356875,160.93409142523544 73.95383125000001,160.92555296911152 74.09409375000001,160.90535926384788 74.23435625000002,160.87532850593016 74.37461875,160.83715033116442 74.51488125,160.79065128566182 74.65514375000001,160.73557739472247 74.79540625000001,160.6712648487375 74.93566875000002,160.59733321494932 75.07593125,160.5141511950001 75.21619375,160.41901506871537 75.35645625000001,160.31141740345367 75.49671875000001,160.19094302685025 75.63698125,160.05493273221336 75.77724375,159.90038438470842 75.91750625,159.7213189627243 76.05776875000001,159.51112267602178 76.19803125000001,159.2527278820741 76.33829375,158.95444385396362 76.47855625000001,158.63256242780267 76.61881875,158.29931812066891 76.75908125000001,157.96662724523466 76.89934375000001,157.64321428279808 77.03960625,157.34275281805205 77.17986875000001,157.08784189762554 77.32013125,156.8757695018404 77.46039375000001,156.69386356127492 77.60065625000001,156.53578232298565 77.74091875,156.39584792262224 77.88118125,156.27452832312918 78.02144375,156.16712536010115 78.16170625000001,156.07401023466645 78.30196875000001,155.99289565379996 78.44223125000002,155.92294700650447 78.58249375000001,155.863895625477 78.72275625,155.8153892389109 78.86301875000001,155.77695812716334 79.00328125000001,155.74892960975336 79.14354375,155.7294524850722 79.28380625,155.71943865884685 79.42406875,155.72074205736126 79.56433125000001,155.7350099618053 79.70459375000002,155.76263788027703 79.84485625,155.8045843964896 79.98511875,155.8629591259723 80.12538125,155.93814811216237 80.26564375000001,156.02979664538594 80.40590625000002,156.13709470842352 80.54616875,156.25716468588394 80.68643125,156.39188574314662 80.82669375,156.53915740668415 80.96695625000001,156.69542702285523 81.10721875000002,156.86132893903886 81.24748125,157.03658075700375 81.38774375000001,157.2209830735555 81.52800625,157.4133709825457 81.66826875000001,157.60882364908358 81.80853125000002,157.8113559535969 81.94879375000001,158.01714578641955 82.08905625000001,158.22572679790156 82.22931875,158.43618991454392 82.36958125000001,158.64251708197253 82.50984375000002,158.8462711164499 82.65010625,159.04902474703675 82.79036875,159.24283265987935 82.93063125,159.43196797007104 83.07089375000001,159.6133901284437 83.21115625000002,159.78446466100587 83.35141875000001,159.9489559214822 83.49168125,160.10290497043007 83.63194375,160.24525591559248 83.77220625000001,160.37681171378512 83.91246875,160.4962871698326 84.05273125000001,160.60262307638192 84.19299375,160.69553004313875 84.33325625,160.7731987458091 84.47351875000001,160.83638284366714 84.61378125000002,160.88278467487484 84.75404375000001,160.91422439865448 84.89430625,160.93063479622433 85.03456875,160.93409142523544 85.17483125000001,160.92555296911152 85.31509375,160.90535926384788 85.45535625000001,160.87532850593016 85.59561875000001,160.83715033116442 85.73588125,160.79065128566182 85.87614375000001,160.73557739472247 86.01640625,160.6712648487375 86.15666875000001,160.59733321494932 86.29693125,160.5141511950001 86.43719375,160.41901506871537 86.57745625000001,160.31141740345367 86.71771875000002,160.19094302685025 86.85798125000001,160.05493273221336 86.99824375,159.90038438470842 87.13850625,159.7213189627243 87.27876875000001,159.51112267602178 87.41903125,159.2527278820741 87.55929375000001,158.95444385396362 87.69955625000001,158.63256242780267 87.83981875,158.29931812066891 87.98008125000001,157.96316769660876 88.12034375,157.63975473417216 88.26060625000001,157.33929326942612 88.40086875000001,157.08438234899964 88.54113125,156.8723099532145 88.68139375000003,156.690404012649 88.82165625,156.53232277435973 88.96191875,156.39584792262224 89.10218125000002,156.27452832312918 89.24244374999999,156.16712536010115 89.38270625000001,156.07401023466645 89.52296875,155.99289565379996 89.66323125000002,155.92294700650447 89.80349375,155.863895625477 89.94375625000002,155.8153892389109 90.08401875000001,155.77695812716334 90.22428124999999,155.74892960975336 90.36454375000001,155.7294524850722 90.50480625,155.71943865884685 90.64506875000002,155.72074205736126 90.78533125,155.7350099618053 90.92559375000002,155.76263788027703 91.06585625000001,155.8045843964896 91.20611875,155.8629591259723 91.34638125000001,155.93814811216237 91.48664375,156.02979664538594 91.62690625000002,156.13709470842352 91.76716875,156.25716468588394 91.90743125000002,156.39188574314662 92.04769375000001,156.53915740668415 92.18795625000001,156.69542702285523 92.32821875,156.86132893903886 92.46848125,157.03658075700375 92.60874375000002,157.2209830735555 92.74900625,157.4133709825457 92.88926875000001,157.60882364908358 93.02953125,157.8113559535969 93.16979375000001,158.01714578641955 93.31005625,158.22572679790156 93.45031875000002,158.43618991454392 93.59058125000001,158.64251708197253 93.73084374999999,158.8462711164499 93.87110625000001,159.04902474703675 94.01136875,159.24283265987935 94.15163125000001,159.43196797007104 94.29189375,159.6133901284437 94.43215625000002,159.78446466100587 94.57241875000001,159.9489559214822 94.71268125,160.10290497043007 94.85294375000001,160.24525591559248 94.99320625,160.37681171378512 95.13346875,160.4962871698326 95.27373125,160.60262307638192 95.41399375000002,160.69553004313875 95.55425625000001,160.7731987458091 95.69451875000001,160.83638284366714 95.83478125,160.88278467487484 95.97504375,160.91422439865448 96.11530625,160.93063479622433 96.25556875,160.93409142523544 96.39583125000001,160.92555296911152 96.53609375,160.90535926384788 96.67635625000001,160.87532850593016 96.81661875,160.83715033116442 96.95688125000002,160.79065128566182 97.09714375,160.73557739472247 97.23740624999999,160.6712648487375 97.37766875000001,160.59733321494932 97.51793125,160.5141511950001 97.65819375000001,160.41901506871537 97.79845625,160.31141740345367 97.93871875000002,160.19094302685025 98.07898125,160.05493273221336 98.21924375,159.90038438470842 98.35950625000001,159.7213189627243 98.49976875,159.51112267602178 98.64003125,159.2527278820741 98.78029375,158.95444385396362 98.92055625000002,158.63256242780267 99.06081875,158.29931812066891 99.20108125000002,157.96662724523466 99.34134375000001,157.64321428279808 99.48160625000001,157.34275281805205 99.62186875,157.08784189762554 99.76213125,156.8757695018404 99.90239375000002,156.69386356127492 100.04265625,156.53578232298565 100.18291875000001,156.39584792262224 100.32318125,156.27452832312918 100.46344375000002,156.16712536010115 100.60370625,156.07401023466645 100.74396875,155.99289565379996 100.88423125000001,155.92294700650447 101.02449374999999,155.863895625477 101.16475625000001,155.8153892389109 101.30501875,155.77695812716334 101.44528125000002,155.74892960975336 101.58554375,155.7294524850722 101.72580625,155.71943865884685 101.86606875000001,155.72074205736126 102.00633124999999,155.7350099618053 102.14659375000001,155.76263788027703 102.28685625,155.8045843964896 102.42711875000002,155.8629591259723 102.56738125,155.93814811216237 102.70764375000002,156.02979664538594 102.84790625000001,156.13709470842352 102.98816875,156.25716468588394 103.12843125,156.39188574314662 103.26869375,156.53915740668415 103.40895625000002,156.69542702285523 103.54921875,156.86132893903886 103.68948125000001,157.03658075700375 103.82974375,157.2209830735555 103.97000625000003,157.4133709825457 104.11026875,157.60882364908358 104.25053125,157.8113559535969 104.39079375000001,158.01714578641955 104.53105624999999,158.22572679790156 104.67131875000001,158.43618991454392 104.81158125,158.64251708197253 104.95184375000002,158.8462711164499 105.09210625,159.04902474703675 105.23236875000002,159.24283265987935 105.37263125000001,159.43196797007104 105.51289374999999,159.6133901284437 105.65315625000001,159.78446466100587 105.79341875,159.9489559214822 105.93368125000002,160.10290497043007 106.07394375,160.24525591559248 106.21420625000002,160.37681171378512 106.35446875000001,160.4962871698326 106.49473125,160.60262307638192 106.63499375,160.69553004313875 106.77525625,160.7731987458091 106.91551875000002,160.83638284366714 107.05578125,160.88278467487484 107.19604375000002,160.91422439865448 107.33630625,160.93063479622433 107.47656875000001,160.93409142523544 107.61683125,160.92555296911152 107.75709375,160.90535926384788 107.89735625000002,160.87532850593016 108.03761875,160.83715033116442 108.17788125000001,160.79065128566182 108.31814375,160.73557739472247 108.45840625000001,160.6712648487375 108.59866875,160.59733321494932 108.73893125000002,160.5141511950001 108.87919375000001,160.41901506871537 109.01945624999999,160.31141740345367 109.15971875000001,160.19094302685025 109.29998125,160.05493273221336 109.44024375000001,159.90038438470842 109.58050625,159.7213189627243 109.72076875000002,159.51112267602178 109.86103125000001,159.2527278820741 110.00129375,158.95444385396362 110.14155625000001,158.63256242780267 110.28181875,158.29931812066891 110.42208125,157.96316769660876 110.56234375,157.63975473417216 110.70260625000002,157.33929326942612 110.84286875000001,157.08438234899964 110.98313125000001,156.8723099532145 111.12339375,156.690404012649 111.26365625000001,156.53232277435973 111.40391875,156.39584792262224 111.54418125,156.27452832312918 111.68444375000001,156.16712536010115 111.82470625,156.07401023466645 111.96496875000001,155.99289565379996 112.10523125,155.92294700650447 112.24549375000002,155.863895625477 112.38575625,155.8153892389109 112.52601874999999,155.77695812716334 112.66628125000001,155.74892960975336 112.80654375,155.7294524850722 112.94680625000001,155.71943865884685 113.08706875,155.72074205736126 113.22733125000002,155.7350099618053 113.36759375,155.76263788027703 113.50785625,155.8045843964896 113.64811875000001,155.8629591259723 113.78838125,155.93814811216237 113.92864375,156.02979664538594 114.06890625,156.13709470842352 114.20916875000002,156.25716468588394 114.34943125,156.39188574314662 114.48969375000001,156.53915740668415 114.62995625,156.69542702285523 114.77021875000001,156.86132893903886 114.91048125,157.03658075700375 115.05074375,157.2209830735555 115.19100625000002,157.4133709825457 115.33126874999999,157.60882364908358 115.47153125000001,157.8113559535969 115.61179375,158.01714578641955 115.75205625000002,158.22572679790156 115.89231875,158.43618991454392 116.03258124999999,158.64251708197253 116.17284375000001,158.8462711164499 116.31310624999999,159.04902474703675 116.45336875000001,159.24283265987935 116.59363125,159.43196797007104 116.73389375000002,159.6133901284437 116.87415625,159.78446466100587 117.01441875000002,159.9489559214822 117.15468125000001,160.10290497043007 117.29494374999999,160.24525591559248 117.43520625000001,160.37681171378512 117.57546875,160.4962871698326 117.71573125000002,160.60262307638192 117.85599375,160.69553004313875 117.99625625000002,160.7731987458091 118.13651875000001,160.83638284366714 118.27678125,160.88278467487484 118.41704375,160.91422439865448 118.55730625,160.93063479622433 118.69756875000002,160.93409142523544 118.83783125,160.92555296911152 118.97809375000001,160.90535926384788 119.11835625,160.87532850593016 119.25861875000002,160.83715033116442 119.39888125,160.79065128566182 119.53914375,160.73557739472247 119.67940625000001,160.6712648487375 119.81966874999999,160.59733321494932 119.95993125000001,160.5141511950001 120.10019375,160.41901506871537 120.24045625000002,160.31141740345367 120.38071875,160.19094302685025 120.52098125000002,160.05493273221336 120.66124375000001,159.90038438470842 120.80150624999999,159.7213189627243 120.94176875000001,159.51112267602178 121.08203125,159.2527278820741 121.22229375000002,158.95444385396362 121.36255625,158.63256242780267 121.50281875000002,158.29931812066891 121.64308125000001,157.96662724523466 121.78334375,157.64321428279808 121.92360625,157.34275281805205 122.06386875,157.08784189762554 122.20413125000002,156.8757695018404 122.34439375,156.69386356127492 122.48465625000001,156.53578232298565 122.62491875,156.39584792262224 122.76518125000001,156.27452832312918 122.90544375,156.16712536010115 123.04570625000001,156.07401023466645 123.18596875000001,155.99289565379996 123.32623124999999,155.92294700650447 123.46649375000001,155.863895625477 123.60675625,155.8153892389109 123.74701875000001,155.77695812716334 123.88728125,155.74892960975336 124.02754375000002,155.7294524850722 124.16780625000001,155.71943865884685 124.30806874999999,155.72074205736126 124.44833125000001,155.7350099618053 124.58859375,155.76263788027703 124.72885625,155.8045843964896 124.86911875,155.8629591259723 125.00938125000002,155.93814811216237 125.14964375000001,156.02979664538594 125.28990625,156.13709470842352 125.43016875,156.25716468588394 125.57043125,156.39188574314662 125.71069375,156.53915740668415 125.85095625,156.69542702285523 125.99121875000002,156.86132893903886 126.13148125000001,157.03658075700375 126.27174375000001,157.2209830735555 126.41200625,157.4133709825457 126.55226875000001,157.60882364908358 126.69253125,157.8113559535969 126.83279375,158.01714578641955 126.97305625000001,158.22572679790156 127.11331875,158.43618991454392 127.25358125000001,158.64251708197253 127.39384375,158.8462711164499 127.53410625000002,159.04902474703675 127.67436875,159.24283265987935 127.81463124999999,159.43196797007104 127.95489375000001,159.6133901284437 128.09515625,159.78446466100587 128.23541875,159.9489559214822 128.37568125,160.10290497043007 128.51594375000002,160.24525591559248 128.65620625,160.37681171378512 128.79646875,160.4962871698326 128.93673125,160.60262307638192 129.07699374999999,160.69553004313875 129.21725625,160.7731987458091 129.35751875,160.83638284366714 129.49778125,160.88278467487484 129.63804375,160.91422439865448 129.77830625,160.93063479622433 129.91856875000002,160.93409142523544 130.05883125000003,160.92555296911152 130.19909375,160.90535926384788 130.33935624999998,160.87532850593016 130.47961875000001,160.83715033116442 130.61988125,160.79065128566182 130.76014375,160.73557739472247 130.90040625,160.6712648487375 131.04066875,160.59733321494932 131.18093125000001,160.5141511950001 131.32119375,160.41901506871537 131.46145625000003,160.31141740345367 131.60171874999997,160.19094302685025 131.74198125,160.05493273221336 131.88224375,159.90038438470842 132.02250625000002,159.7213189627243 132.16276875,159.51112267602178 132.30303125,159.2527278820741 132.44329375,158.95444385396362 132.58355625,158.63256242780267 132.72381875000002,158.29931812066891 132.86408125,157.96431743778922 133.00434375000003,158.2328746244559 133.14460624999998,158.5488321050859 133.28486875,158.93263700661328 133.355,158.93263700661328" stroke="black" stroke-width="0.35" /><polyline fill="none" points="21.14500000000001,162.28056134115317 133.355,162.28056134115317" stroke="black" stroke-width="0.35" /><polyline fill="none" points="21.14500000000001,162.28056134115317 21.14500000000001,158.46048810081672" stroke="black" stroke-width="0.35" /><polyline fill="none" points="133.355,162.28056134115317 133.355,158.93263700661328" stroke="black" stroke-width="0.35" /><line stroke="black" stroke-width="0.2" x1="21.14500000000001" x2="21.14500000000001" y1="162.28056134115317" y2="172.28056134115317" /><line stroke="black" stroke-width="0.2" x1="133.355" x2="133.355" y1="162.28056134115317" y2="172.28056134115317" /><line stroke="black" stroke-width="0.2" x1="21.14500000000001" x2="133.355" y1="172.28056134115317" y2="172.28056134115317" /><polygon fill="black" points="21.14500000000001,172.28056134115317 22.34500000000001,171.53056134115317 22.34500000000001,173.03056134115317" /><polygon fill="black" points="133.355,172.28056134115317 132.155,171.53056134115317 132.155,173.03056134115317" /><text fill="black" font-size="1mm" stroke="white" stroke-linejoin="round" stroke-width="0.8" text-anchor="middle" x="77.25" y="170.48056134115316">213.21 mm</text><text fill="black" font-size="1mm" text-anchor="middle" x="77.25" y="170.48056134115316">213.21 mm</text><line stroke="black" stroke-width="0.2" x1="133.355" x2="141.5" y1="155.71943865884685" y2="155.71943865884685" /><line stroke="black" stroke-width="0.2" x1="133.355" x2="141.5" y1="162.28056134115317" y2="162.28056134115317" /><line stroke="black" stroke-width="0.2" x1="141.5" x2="141.5" y1="155.71943865884685" y2="162.28056134115317" /><polygon fill="black" points="141.5,155.71943865884685 140.75,156.91943865884684 142.25,156.91943865884684" /><polygon fill="black" points="141.5,162.28056134115317 140.75,161.08056134115319 142.25,161.08056134115319" /><text fill="black" font-size="1mm" stroke="white" stroke-linejoin="round" stroke-width="0.8" text-anchor="middle" transform="rotate(-90,143.7,159.0)" x="143.7" y="159.0">12.50 mm</text><text fill="black" font-size="1mm" text-anchor="middle" transform="rotate(-90,143.7,159.0)" x="143.7" y="159.0">12.50 mm</text><text fill="black" font-size="1mm" stroke="white" stroke-linejoin="round" stroke-width="0.8" text-anchor="start" x="12" y="112.0">Pitch = 21.32 mm (L/10)</text><text fill="black" font-size="1mm" text-anchor="start" x="12" y="112.0">Pitch = 21.32 mm (L/10)</text><rect fill="none" height="104.0" stroke="black" stroke-width="0.2" width="134.5" x="152.5" y="96.0" /><text font-size="2mm" x="154.5" y="103.0">End view (YZ)</text><polyline fill="none" points="212.90816764997226,158.28934153488646 226.59183235002772,158.28934153488646 226.59183235002772,151.71065846511357 212.90816764997226,151.71065846511357 212.90816764997226,158.28934153488646" stroke="black" stroke-width="0.35" /><polyline fill="none" points="212.90816764997226,153.01964245587843 226.59183235002772,153.01964245587843" stroke="black" stroke-width="0.35" /><line stroke="black" stroke-width="0.2" x1="212.90816764997226" x2="212.90816764997226" y1="158.28934153488646" y2="168.28934153488646" /><line stroke="black" stroke-width="0.2" x1="226.59183235002772" x2="226.59183235002772" y1="158.28934153488646" y2="168.28934153488646" /><line stroke="black" stroke-width="0.2" x1="212.90816764997226" x2="226.59183235002772" y1="168.28934153488646" y2="168.28934153488646" /><polygon fill="black" points="212.90816764997226,168.28934153488646 214.10816764997224,167.53934153488646 214.10816764997224,169.03934153488646" /><polygon fill="black" points="226.59183235002772,168.28934153488646 225.39183235002773,167.53934153488646 225.39183235002773,169.03934153488646" /><text fill="black" font-size="1mm" stroke="white" stroke-linejoin="round" stroke-width="0.8" text-anchor="middle" x="219.75" y="166.48934153488645">26.00 mm</text><text fill="black" font-size="1mm" text-anchor="middle" x="219.75" y="166.48934153488645">26.00 mm</text><line stroke="black" stroke-width="0.2" x1="226.59183235002772" x2="236.59183235002772" y1="151.71065846511357" y2="151.71065846511357" /><line stroke="black" stroke-width="0.2" x1="226.59183235002772" x2="236.59183235002772" y1="158.28934153488646" y2="158.28934153488646" /><line stroke="black" stroke-width="0.2" x1="236.59183235002772" x2="236.59183235002772" y1="151.71065846511357" y2="158.28934153488646" /><polygon fill="black" points="236.59183235002772,151.71065846511357 235.84183235002772,152.91065846511356 237.34183235002772,152.91065846511356" /><polygon fill="black" points="236.59183235002772,158.28934153488646 235.84183235002772,157.08934153488647 237.34183235002772,157.08934153488647" /><text fill="black" font-size="1mm" stroke="white" stroke-linejoin="round" stroke-width="0.8" text-anchor="middle" transform="rotate(-90,238.7918323500277,155.0)" x="238.7918323500277" y="155.0">12.50 mm</text><text fill="black" font-size="1mm" text-anchor="middle" transform="rotate(-90,238.7918323500277,155.0)" x="238.7918323500277" y="155.0">12.50 mm</text></svg>