<?xml version="1.0" encoding="utf-8" ?>
<svg baseProfile="full" height="210mm" version="1.1" viewBox="0 0 297 210" width="297mm" xmlns="http://www.w3.org/2000/svg" xmlns:ev="http://www.w3.org/2001/xml-events" xmlns:xlink="http://www.w3.org/1999/xlink"><defs /><text font-size="4mm" x="10" y="14">STL views + dimensions (unit scale x1.0)</text><rect fill="none" height="60.0" stroke="black" stroke-width="0.2" width="134.5" x="152.5" y="28" /><text font-size="2mm" x="154.5" y="35">Notes</text><text font-size="1mm" x="154.5" y="44">Drawing scale: 0.5263 mm/mm</text><rect fill="none" height="60.0" stroke="black" stroke-width="0.2" width="134.5" x="10" y="28" /><text font-size="2mm" x="12" y="35">Top view (XY)</text><polyline fill="none" points="21.14500000000001,71.84183235002773 133.355,71.84183235002773 133.355,58.15816764997226 21.14500000000001,58.15816764997226 21.14500000000001,71.84183235002773" stroke="black" stroke-width="0.35" /><line stroke="black" stroke-width="0.2" x1="21.14500000000001" x2="21.14500000000001" y1="71.84183235002773" y2="81.84183235002773" /><line stroke="black" stroke-width="0.2" x1="133.355" x2="133.355" y1="71.84183235002773" y2="81.84183235002773" /><line stroke="black" stroke-width="0.2" x1="21.14500000000001" x2="133.355" y1="81.84183235002773" y2="81.84183235002773" /><polygon fill="black" points="21.14500000000001,81.84183235002773 22.34500000000001,81.09183235002773 22.34500000000001,82.59183235002773" /><polygon fill="black" points="133.355,81.84183235002773 132.155,81.09183235002773 132.155,82.59183235002773" /><text fill="black" font-size="1mm" stroke="white" stroke-linejoin="round" stroke-width="0.8" text-anchor="middle" x="77.25" y="80.04183235002773">213.21 mm</text><text fill="black" font-size="1mm" text-anchor="middle" x="77.25" y="80.04183235002773">213.21 mm</text><line stroke="black" stroke-width="0.2" x1="133.355" x2="141.5" y1="58.15816764997226" y2="58.15816764997226" /><line stroke="black" stroke-width="0.2" x1="133.355" x2="141.5" y1="71.84183235002773" y2="71.84183235002773" /><line stroke="black" stroke-width="0.2" x1="141.5" x2="141.5" y1="58.15816764997226" y2="71.84183235002773" /><polygon fill="black" points="141.5,58.15816764997226 140.75,59.358167649972266 142.25,59.358167649972266" /><polygon fill="black" points="141.5,71.84183235002773 140.75,70.64183235002773 142.25,70.64183235002773" /><text fill="black" font-size="1mm" stroke="white" stroke-linejoin="round" stroke-width="0.8" text-anchor="middle" transform="rotate(-90,143.7,65.0)" x="143.7" y="65.0">26.00 mm</text><text fill="black" font-size="1mm" text-anchor="middle" transform="rotate(-90,143.7,65.0)" x="143.7" y="65.0">26.00 mm</text><rect fill="none" height="104.0" stroke="black" stroke-width="0.2" width="134.5" x="10" y="96.0" /><text font-size="2mm" x="12" y="103.0">Side view (XZ)</text><polyline fill="none" points="21.14500000000001,158.50053145837632 21.21513125000001,158.50053145837632 21.35539375000001,157.81729064546147 21.49565625000001,157.11835649282548 21.63591875000001,156.40674249110342 21.77618125000001,156.24665155398802 21.91644375000001,156.12209260263646 22.05670625000001,156.02440160051603 22.19696875000001,155.94466771289376 22.33723125000001,155.8817500179322 22.47749375000001,155.8316808151036 22.61775625000001,155.7925815126444 22.75801875000001,155.76257975686295 22.89828125000001,155.74108536879723 23.03854375000001,155.72629210397716 23.17880625000001,155.71768234584013 23.31906875000001,155.71445819480047 23.45933125000001,155.71676119055823 23.59959375000001,155.72443172451545 23.73985625000001,155.73831272509858 23.88011875000001,155.758045969237 24.02038125000001,155.78598270811807 24.16064375000001,155.82194504914006 24.30090625000001,155.86851619938182 24.44116875000001,155.92631315434429 24.58143125000001,155.99609466433438 24.72169375000001,156.0811087571497 24.86195625000001,156.18492597607457 25.00221875000001,156.31149584518587 25.14248125000001,156.46808270674842 25.28274375000001,156.66776661442577 25.42300625000001,156.93802670508998 25.56326875000001,157.31321917758174 25.70353125000001,157.72880547792764 25.84379375000001,158.16094600776594 25.98405625000001,158.5952570460364 26.124318750000008,159.01546426983424 26.26458125000001,159.40142496296323 26.40484375000001,159.7206508168264 26.54510625000001,159.93559450030327 26.68536875000001,160.10325052913922 26.82563125000001,160.24099511083216 26.96589375000001,160.35569196182038 27.106156250000012,160.4538917297908 27.24641875000001,160.53853256676817 27.38668125000001,160.61211917737128 27.526943750000008,160.6746394641325 27.66720625000001,160.72824897777957 27.80746875000001,160.77474185971312 27.94773125000001,160.81450343018872 28.08799375000001,160.84889438768244 28.22825625000001,160.87780646753262 28.36851875000001,160.9015767226615 28.50878125000001,160.9213852561151 28.64904375000001,160.93709966693922 28.78930625000001,160.94890047492333 28.92956875000001,160.95670347190872 29.06983125000001,160.96066519372408 29.21009375000001,160.9612311108102 29.35035625000001,160.95805206493466 29.49061875000001,160.95082708985532 29.63088125000001,160.94020631008178 29.77114375000001,160.92557569063786 29.91140625000001,160.90633315038372 30.05166875000001,160.88292415991768 30.19193125000001,160.85432522472217 30.33219375000001,160.81957300298575 30.472456250000008,160.7793658865162 30.61271875000001,160.73182537709866 30.75298125000001,160.6756991946859 30.89324375000001,160.61105952076056 31.03350625000001,160.53357140399737 31.173768750000008,160.4429578775897 31.314031250000006,160.3354859955189 31.454293750000012,160.2045570003131 31.59455625000001,160.03986319519953 31.73481875000001,159.8126731593376 31.87508125000001,159.40522707674083 32.015343750000014,158.94614036185308 32.15560625000001,158.46260302229217 32.29586875000001,157.97080816054992 32.43613125000001,157.48736112066467 32.57639375000001,157.0272297528046 32.716656250000014,156.6263643879108 32.856918750000006,156.40674249110342 32.99718125000001,156.24665155398802 33.13744375000001,156.12209260263646 33.27770625000001,156.02440160051603 33.41796875000001,155.94466771289376 33.55823125000001,155.8817500179322 33.69849375000001,155.8316808151036 33.83875625000001,155.7925815126444 33.97901875000001,155.76257975686295 34.11928125000001,155.74108536879723 34.259543750000006,155.72629210397716 34.39980625000001,155.71768234584013 34.54006875000001,155.71445819480047 34.68033125000001,155.71676119055823 34.820593750000015,155.72443172451545 34.960856250000006,155.73831272509858 35.10111875000001,155.758045969237 35.24138125000001,155.78598270811807 35.38164375000001,155.82194504914006 35.52190625000001,155.86851619938182 35.662168750000006,155.92631315434429 35.80243125000001,155.99609466433438 35.94269375000001,156.0811087571497 36.08295625000001,156.18492597607457 36.22321875000001,156.31149584518587 36.36348125000001,156.46808270674842 36.50374375000001,156.66776661442577 36.644006250000004,156.93802670508998 36.78426875000001,157.31321917758174 36.92453125000001,157.72880547792764 37.06479375000001,158.16094600776594 37.20505625000001,158.5952570460364 37.34531875000001,159.01546426983424 37.48558125000001,159.40142496296323 37.62584375000001,159.7206508168264 37.76610625000001,159.93559450030327 37.90636875000001,160.10325052913922 38.046631250000004,160.24099511083216 38.18689375000001,160.35569196182038 38.327156250000016,160.4538917297908 38.46741875000001,160.53853256676817 38.607681250000006,160.61211917737128 38.747943750000005,160.6746394641325 38.88820625000001,160.72824897777957 39.02846875000001,160.77474185971312 39.16873125000001,160.81450343018872 39.30899375000001,160.84889438768244 39.449256250000005,160.87780646753262 39.58951875000001,160.9015767226615 39.72978125000001,160.9213852561151 39.87004375000001,160.93709966693922 40.01030625000001,160.94890047492333 40.15056875000001,160.95670347190872 40.29083125000001,160.96066519372408 40.43109375,160.9612311108102 40.57135625000001,160.95805206493466 40.711618750000014,160.95082708985532 40.851881250000005,160.94020631008178 40.99214375000001,160.92557569063786 41.13240625000001,160.90633315038372 41.27266875000001,160.88292415991768 41.412931250000014,160.85432522472217 41.553193750000005,160.81957300298575 41.69345625000001,160.7793658865162 41.83371875000001,160.73182537709866 41.97398125000001,160.6756991946859 42.114243750000014,160.61105952076056 42.254506250000006,160.53357140399737 42.39476875000001,160.4429578775897 42.53503125000001,160.3354859955189 42.67529375000001,160.2045570003131 42.81555625000001,160.03986319519953 42.955818750000006,159.8126731593376 43.09608125000001,159.40899307961092 43.23634375000001,158.94990636472318 43.37660625000001,158.46636902516227 43.51686875000001,157.97457416342002 43.657131250000006,157.49112712353477 43.79739375000001,157.0309957556747 43.93765625,156.63013039078086 44.07791875000001,156.40674249110342 44.218181250000015,156.24665155398802 44.358443750000006,156.12209260263646 44.498706250000005,156.02440160051603 44.638968750000004,155.94466771289376 44.77923125000001,155.8817500179322 44.91949375000001,155.8316808151036 45.05975625000001,155.7925815126444 45.20001875000001,155.76257975686295 45.34028125000001,155.74108536879723 45.48054375000001,155.72629210397716 45.62080625000001,155.71768234584013 45.76106875000001,155.71445819480047 45.90133125000001,155.71676119055823 46.04159375000001,155.72443172451545 46.18185625000001,155.73831272509858 46.32211875000001,155.758045969237 46.46238125000001,155.78598270811807 46.60264375000001,155.82194504914006 46.742906250000004,155.86851619938182 46.88316875000001,155.92631315434429 47.02343125000001,155.99609466433438 47.16369375000001,156.0811087571497 47.30395625000001,156.18492597607457 47.444218750000005,156.31149584518587 47.58448125000001,156.46808270674842 47.72474375000001,156.66776661442577 47.86500625000001,156.93802670508998 48.005268750000006,157.31321917758174 48.145531250000005,157.72880547792764 48.28579375000001,158.16094600776594 48.426056250000016,158.5952570460364 48.56631875000001,159.01546426983424 48.706581250000006,159.40142496296323 48.846843750000005,159.7206508168264 48.98710625000001,159.93559450030327 49.12736875000001,160.10325052913922 49.26763125000001,160.24099511083216 49.407893750000014,160.35569196182038 49.54815625000001,160.4538917297908 49.68841875000001,160.53853256676817 49.82868125,160.61211917737128 49.96894375000001,160.6746394641325 50.109206250000014,160.72824897777957 50.249468750000005,160.77474185971312 50.38973125000001,160.81450343018872 50.52999375000001,160.84889438768244 50.67025625000001,160.87780646753262 50.81051875000001,160.9015767226615 50.950781250000006,160.9213852561151 51.09104375000001,160.93709966693922 51.23130625000001,160.94890047492333 51.37156875000001,160.95670347190872 51.511831250000014,160.96066519372408 51.652093750000006,160.9612311108102 51.79235625000001,160.95805206493466 51.93261875000001,160.95082708985532 52.07288125000001,160.94020631008178 52.21314375000001,160.92557569063786 52.353406250000006,160.90633315038372 52.49366875000001,160.88292415991768 52.63393125000001,160.85432522472217 52.77419375000001,160.81957300298575 52.91445625000001,160.7793658865162 53.054718750000006,160.73182537709866 53.194981250000005,160.6756991946859 53.335243750000004,160.61105952076056 53.47550625000001,160.53357140399737 53.61576875000001,160.4429578775897 53.75603125000001,160.3354859955189 53.896293750000005,160.2045570003131 54.03655625000001,160.03986319519953 54.17681875000001,159.8126731593376 54.31708125000001,159.40899307961092 54.45734375000001,158.94990636472318 54.597606250000005,158.46636902516227 54.73786875000001,157.97457416342002 54.87813125000001,157.49112712353477 55.018393750000016,157.0309957556747 55.15865625000001,156.63013039078086 55.298918750000006,156.40674249110342 55.43918125000001,156.24665155398802 55.57944375,156.12209260263646 55.71970625000001,156.02440160051603 55.85996875000001,155.94466771289376 56.00023125000001,155.8817500179322 56.14049375000001,155.8316808151036 56.28075625,155.7925815126444 56.42101875000001,155.76257975686295 56.56128125000001,155.74108536879723 56.701543750000006,155.72629210397716 56.841806250000005,155.71768234584013 56.98206875000001,155.71445819480047 57.12233125000001,155.71676119055823 57.26259375000001,155.72443172451545 57.40285625000001,155.73831272509858 57.543118750000005,155.758045969237 57.68338125000001,155.78598270811807 57.82364375000001,155.82194504914006 57.96390625000001,155.86851619938182 58.10416875000001,155.92631315434429 58.244431250000005,155.99609466433438 58.38469375000001,156.0811087571497 58.52495625000001,156.18492597607457 58.66521875000001,156.31149584518587 58.80548125000001,156.46808270674842 58.94574375000001,156.66776661442577 59.086006250000004,156.93802670508998 59.22626875,157.31321917758174 59.36653125000001,157.72880547792764 59.50679375000001,158.16094600776594 59.64705625000001,158.5952570460364 59.787318750000004,159.01546426983424 59.92758125000001,159.40142496296323 60.06784375000001,159.7206508168264 60.208106250000014,159.93559450030327 60.348368750000006,160.10325052913922 60.488631250000005,160.24099511083216 60.62889375000001,160.35569196182038 60.76915625000001,160.4538917297908 60.909418750000015,160.53853256676817 61.049681250000006,160.61211917737128 61.18994375000001,160.6746394641325 61.33020625000001,160.72824897777957 61.47046875,160.77474185971312 61.61073125000001,160.81450343018872 61.750993750000006,160.84889438768244 61.89125625000001,160.87780646753262 62.03151875000001,160.9015767226615 62.17178125000001,160.9213852561151 62.31204375000001,160.93709966693922 62.45230625000001,160.94890047492333 62.592568750000005,160.95670347190872 62.732831250000004,160.96066519372408 62.87309375000001,160.9612311108102 63.01335625000001,160.95805206493466 63.153618750000014,160.95082708985532 63.29388125000001,160.94020631008178 63.434143750000004,160.92557569063786 63.57440625000001,160.90633315038372 63.71466875000001,160.88292415991768 63.85493125000001,160.85432522472217 63.995193750000006,160.81957300298575 64.13545625,160.7793658865162 64.27571875000001,160.73182537709866 64.41598125000002,160.6756991946859 64.55624375000001,160.61105952076056 64.69650625,160.53357140399737 64.83676875,160.4429578775897 64.97703125000001,160.3354859955189 65.11729375000002,160.2045570003131 65.25755625000001,160.03986319519953 65.39781875,159.8126731593376 65.53808125,159.40899307961092 65.67834375000001,158.94990636472318 65.81860625000002,158.46636902516227 65.95886875000001,157.97457416342002 66.09913125000001,157.49112712353477 66.23939375,157.0309957556747 66.37965625000001,156.63013039078086 66.51991875000002,156.40674249110342 66.66018125000001,156.24665155398802 66.80044375000001,156.12209260263646 66.94070625,156.02440160051603 67.08096875000001,155.94466771289376 67.22123125000002,155.8817500179322 67.36149375,155.8316808151036 67.50175625,155.7925815126444 67.64201875,155.76257975686295 67.78228125000001,155.74108536879723 67.92254375000002,155.72629210397716 68.06280625000001,155.71768234584013 68.20306875,155.71445819480047 68.34333125,155.71676119055823 68.48359375000001,155.72443172451545 68.62385625,155.73831272509858 68.76411875000001,155.758045969237 68.90438125,155.78598270811807 69.04464375,155.82194504914006 69.18490625000001,155.86851619938182 69.32516875000002,155.92631315434429 69.46543125000001,155.99609466433438 69.60569375,156.0811087571497 69.74595625,156.18492597607457 69.88621875000001,156.31149584518587 70.02648125000002,156.46808270674842 70.16674375000001,156.66776661442577 70.30700625000001,156.93802670508998 70.44726875,157.31321917758174 70.58753125000001,157.72880547792764 70.72779375000002,158.16094600776594 70.86805625,158.5952570460364 71.00831875,159.01546426983424 71.14858125,159.40142496296323 71.28884375000001,159.7206508168264 71.42910625000002,159.93559450030327 71.56936875,160.10325052913922 71.70963125,160.24099511083216 71.84989375,160.35569196182038 71.99015625000001,160.4538917297908 72.13041875,160.53853256676817 72.27068125000001,160.61211917737128 72.41094375,160.6746394641325 72.55120625,160.72824897777957 72.69146875000001,160.77474185971312 72.83173125,160.81450343018872 72.97199375000001,160.84889438768244 73.11225625,160.87780646753262 73.25251875000001,160.9015767226615 73.39278125000001,160.9213852561151 73.53304375,160.93709966693922 73.67330625000001,160.94890047492333 73.81356875,160.95670347190872 73.95383125000001,160.96066519372408 74.09409375000001,160.9612311108102 74.23435625000002,160.95805206493466 74.37461875,160.95082708985532 74.51488125,160.94020631008178 74.65514375000001,160.92557569063786 74.79540625000001,160.90633315038372 74.93566875000002,160.88292415991768 75.07593125,160.85432522472217 75.21619375,160.81957300298575 75.35645625000001,160.7793658865162 75.49671875000001,160.73182537709866 75.63698125,160.6756991946859 75.77724375,160.61105952076056 75.91750625,160.53357140399737 76.05776875000001,160.4429578775897 76.19803125000001,160.3354859955189 76.33829375,160.2045570003131 76.47855625000001,160.03986319519953 76.61881875,159.8126731593376 76.75908125000001,159.40899307961092 76.89934375000001,158.94990636472318 77.03960625,158.46636902516227 77.17986875000001,157.97457416342002 77.32013125,157.49112712353477 77.46039375000001,157.0309957556747 77.60065625000001,156.63013039078086 77.74091875,156.40674249110342 77.88118125,156.24665155398802 78.02144375,156.12209260263646 78.16170625000001,156.02440160051603 78.30196875000001,155.94466771289376 78.44223125000002,155.8817500179322 78.58249375000001,155.8316808151036 78.72275625,155.7925815126444 78.86301875000001,155.76257975686295 79.00328125000001,155.74108536879723 79.14354375,155.72629210397716 79.28380625,155.71768234584013 79.42406875,155.71445819480047 79.56433125000001,155.71676119055823 79.70459375000002,155.72443172451545 79.84485625,155.73831272509858 79.98511875,155.758045969237 80.12538125,155.78598270811807 80.26564375000001,155.82194504914006 80.40590625000002,155.86851619938182 80.54616875,155.92631315434429 80.68643125,155.99609466433438 80.82669375,156.0811087571497 80.96695625000001,156.18492597607457 81.10721875000002,156.31149584518587 81.24748125,156.46808270674842 81.38774375000001,156.66776661442577 81.52800625,156.93802670508998 81.66826875000001,157.31321917758174 81.80853125000002,157.72880547792764 81.94879375000001,158.16094600776594 82.08905625000001,158.5952570460364 82.22931875,159.01546426983424 82.36958125000001,159.40142496296323 82.50984375000002,159.7206508168264 82.65010625,159.93559450030327 82.79036875,160.10325052913922 82.93063125,160.24099511083216 83.07089375000001,160.35569196182038 83.21115625000002,160.4538917297908 83.35141875000001,160.53853256676817 83.49168125,160.61211917737128 83.63194375,160.6746394641325 83.77220625000001,160.72824897777957 83.91246875,160.77474185971312 84.05273125000001,160.81450343018872 84.19299375,160.84889438768244 84.33325625,160.87780646753262 84.47351875000001,160.9015767226615 84.61378125000002,160.9213852561151 84.75404375000001,160.93709966693922 84.89430625,160.94890047492333 85.03456875,160.95670347190872 85.17483125000001,160.96066519372408 85.31509375,160.9612311108102 85.45535625000001,160.95805206493466 85.59561875000001,160.95082708985532 85.73588125,160.94020631008178 85.87614375000001,160.92557569063786 86.01640625,160.90633315038372 86.15666875000001,160.88292415991768 86.29693125,160.85432522472217 86.43719375,160.81957300298575 86.57745625000001,160.7793658865162 86.71771875000002,160.73182537709866 86.85798125000001,160.6756991946859 86.99824375,160.61105952076056 87.13850625,160.53357140399737 87.27876875000001,160.4429578775897 87.41903125,160.3354859955189 87.55929375000001,160.2045570003131 87.69955625000001,160.03986319519953 87.83981875,159.8126731593376 87.98008125000001,159.40522707674083 88.12034375,158.94614036185308 88.26060625000001,158.46260302229217 88.40086875000001,157.97080816054992 88.54113125,157.48736112066467 88.68139375000003,157.0272297528046 88.82165625,156.6263643879108 88.96191875,156.40674249110342 89.10218125000002,156.24665155398802 89.24244374999999,156.12209260263646 89.38270625000001,156.02440160051603 89.52296875,155.94466771289376 89.66323125000002,155.8817500179322 89.80349375,155.8316808151036 89.94375625000002,155.7925815126444 90.08401875000001,155.76257975686295 90.22428124999999,155.74108536879723 90.36454375000001,155.72629210397716 90.50480625,155.71768234584013 90.64506875000002,155.71445819480047 90.78533125,155.71676119055823 90.92559375000002,155.72443172451545 91.06585625000001,155.73831272509858 91.20611875,155.758045969237 91.34638125000001,155.78598270811807 91.48664375,155.82194504914006 91.62690625000002,155.86851619938182 91.76716875,155.92631315434429 91.90743125000002,155.99609466433438 92.04769375000001,156.0811087571497 92.18795625000001,156.18492597607457 92.32821875,156.31149584518587 92.46848125,156.46808270674842 92.60874375000002,156.66776661442577 92.74900625,156.93802670508998 92.88926875000001,157.31321917758174 93.02953125,157.72880547792764 93.16979375000001,158.16094600776594 93.31005625,158.5952570460364 93.45031875000002,159.01546426983424 93.59058125000001,159.40142496296323 93.73084374999999,159.7206508168264 93.87110625000001,159.93559450030327 94.01136875,160.10325052913922 94.15163125000001,160.24099511083216 94.29189375,160.35569196182038 94.43215625000002,160.4538917297908 94.57241875000001,160.53853256676817 94.71268125,160.61211917737128 94.85294375000001,160.6746394641325 94.99320625,160.72824897777957 95.13346875,160.77474185971312 95.27373125,160.81450343018872 95.41399375000002,160.84889438768244 95.55425625000001,160.87780646753262 95.69451875000001,160.9015767226615 95.83478125,160.9213852561151 95.97504375,160.93709966693922 96.11530625,160.94890047492333 96.25556875,160.95670347190872 96.39583125000001,160.96066519372408 96.53609375,160.9612311108102 96.67635625000001,160.95805206493466 96.81661875,160.95082708985532 96.95688125000002,160.94020631008178 97.09714375,160.92557569063786 97.23740624999999,160.90633315038372 97.37766875000001,160.88292415991768 97.51793125,160.85432522472217 97.65819375000001,160.81957300298575 97.79845625,160.7793658865162 97.93871875000002,160.73182537709866 98.07898125,160.6756991946859 98.21924375,160.61105952076056 98.35950625000001,160.53357140399737 98.49976875,160.4429578775897 98.64003125,160.3354859955189 98.78029375,160.2045570003131 98.92055625000002,160.03986319519953 99.06081875,159.8126731593376 99.20108125000002,159.40899307961092 99.34134375000001,158.94990636472318 99.48160625000001,158.46636902516227 99.62186875,157.97457416342002 99.76213125,157.49112712353477 99.90239375000002,157.0309957556747 100.04265625,156.63013039078086 100.18291875000001,156.40674249110342 100.32318125,156.24665155398802 100.46344375000002,156.12209260263646 100.60370625,156.02440160051603 100.74396875,155.94466771289376 100.88423125000001,155.8817500179322 101.02449374999999,155.8316808151036 101.16475625000001,155.7925815126444 101.30501875,155.76257975686295 101.44528125000002,155.74108536879723 101.58554375,155.72629210397716 101.72580625,155.71768234584013 101.86606875000001,155.71445819480047 102.00633124999999,155.71676119055823 102.14659375000001,155.72443172451545 102.28685625,155.73831272509858 102.42711875000002,155.758045969237 102.56738125,155.78598270811807 102.70764375000002,155.82194504914006 102.84790625000001,155.86851619938182 102.98816875,155.92631315434429 103.12843125,155.99609466433438 103.26869375,156.0811087571497 103.40895625000002,156.18492597607457 103.54921875,156.31149584518587 103.68948125000001,156.46808270674842 103.82974375,156.66776661442577 103.97000625000003,156.93802670508998 104.11026875,157.31321917758174 104.25053125,157.72880547792764 104.39079375000001,158.16094600776594 104.53105624999999,158.5952570460364 104.67131875000001,159.01546426983424 104.81158125,159.40142496296323 104.95184375000002,159.7206508168264 105.09210625,159.93559450030327 105.23236875000002,160.10325052913922 105.37263125000001,160.24099511083216 105.51289374999999,160.35569196182038 105.65315625000001,160.4538917297908 105.79341875,160.53853256676817 105.93368125000002,160.61211917737128 106.07394375,160.6746394641325 106.21420625000002,160.72824897777957 106.35446875000001,160.77474185971312 106.49473125,160.81450343018872 106.63499375,160.84889438768244 106.77525625,160.87780646753262 106.91551875000002,160.9015767226615 107.05578125,160.9213852561151 107.19604375000002,160.93709966693922 107.33630625,160.94890047492333 107.47656875000001,160.95670347190872 107.61683125,160.96066519372408 107.75709375,160.9612311108102 107.89735625000002,160.95805206493466 108.03761875,160.95082708985532 108.17788125000001,160.94020631008178 108.31814375,160.92557569063786 108.45840625000001,160.90633315038372 108.59866875,160.88292415991768 108.73893125000002,160.85432522472217 108.87919375000001,160.81957300298575 109.01945624999999,160.7793658865162 109.15971875000001,160.73182537709866 109.29998125,160.6756991946859 109.44024375000001,160.61105952076056 109.58050625,160.53357140399737 109.72076875000002,160.4429578775897 109.86103125000001,160.3354859955189 110.00129375,160.2045570003131 110.14155625000001,160.03986319519953 110.28181875,159.8126731593376 110.42208125,159.40522707674083 110.56234375,158.94614036185308 110.70260625000002,158.46260302229217 110.84286875000001,157.97080816054992 110.98313125000001,157.48736112066467 111.12339375,157.0272297528046 111.26365625000001,156.6263643879108 111.40391875,156.40674249110342 111.54418125,156.24665155398802 111.68444375000001,156.12209260263646 111.82470625,156.02440160051603 111.96496875000001,155.94466771289376 112.10523125,155.8817500179322 112.24549375000002,155.8316808151036 112.38575625,155.7925815126444 112.52601874999999,155.76257975686295 112.66628125000001,155.74108536879723 112.80654375,155.72629210397716 112.94680625000001,155.71768234584013 113.08706875,155.71445819480047 113.22733125000002,155.71676119055823 113.36759375,155.72443172451545 113.50785625,155.73831272509858 113.64811875000001,155.758045969237 113.78838125,155.78598270811807 113.92864375,155.82194504914006 114.06890625,155.86851619938182 114.20916875000002,155.92631315434429 114.34943125,155.99609466433438 114.48969375000001,156.0811087571497 114.62995625,156.18492597607457 114.77021875000001,156.31149584518587 114.91048125,156.46808270674842 115.05074375,156.66776661442577 115.19100625000002,156.93802670508998 115.33126874999999,157.31321917758174 115.47153125000001,157.72880547792764 115.61179375,158.16094600776594 115.75205625000002,158.5952570460364 115.89231875,159.01546426983424 116.03258124999999,159.40142496296323 116.17284375000001,159.7206508168264 116.31310624999999,159.93559450030327 116.45336875000001,160.10325052913922 116.59363125,160.24099511083216 116.73389375000002,160.35569196182038 116.87415625,160.4538917297908 117.01441875000002,160.53853256676817 117.15468125000001,160.61211917737128 117.29494374999999,160.6746394641325 117.43520625000001,160.72824897777957 117.57546875,160.77474185971312 117.71573125000002,160.81450343018872 117.85599375,160.84889438768244 117.99625625000002,160.87780646753262 118.13651875000001,160.9015767226615 118.27678125,160.9213852561151 118.41704375,160.93709966693922 118.55730625,160.94890047492333 118.69756875000002,160.95670347190872 118.83783125,160.96066519372408 118.97809375000001,160.9612311108102 119.11835625,160.95805206493466 119.25861875000002,160.95082708985532 119.39888125,160.94020631008178 119.53914375,160.92557569063786 119.67940625000001,160.90633315038372 119.81966874999999,160.88292415991768 119.95993125000001,160.85432522472217 120.10019375,160.81957300298575 120.24045625000002,160.7793658865162 120.38071875,160.73182537709866 120.52098125000002,160.6756991946859 120.66124375000001,160.61105952076056 120.80150624999999,160.53357140399737 120.94176875000001,160.4429578775897 121.08203125,160.3354859955189 121.22229375000002,160.2045570003131 121.36255625,160.03986319519953 121.50281875000002,159.8126731593376 121.64308125000001,159.40899307961092 121.78334375,158.94990636472318 121.92360625,158.46636902516227 122.06386875,157.97457416342002 122.20413125000002,157.49112712353477 122.34439375,157.0309957556747 122.48465625000001,156.63013039078086 122.62491875,156.40674249110342 122.76518125000001,156.24665155398802 122.90544375,156.12209260263646 123.04570625000001,156.02440160051603 123.18596875000001,155.94466771289376 123.32623124999999,155.8817500179322 123.46649375000001,155.8316808151036 123.60675625,155.7925815126444 123.74701875000001,155.76257975686295 123.88728125,155.74108536879723 124.02754375000002,155.72629210397716 124.16780625000001,155.71768234584013 124.30806874999999,155.71445819480047 124.44833125000001,155.71676119055823 124.58859375,155.72443172451545 124.72885625,155.73831272509858 124.86911875,155.758045969237 125.00938125000002,155.78598270811807 125.14964375000001,155.82194504914006 125.28990625,155.86851619938182 125.43016875,155.92631315434429 125.57043125,155.99609466433438 125.71069375,156.0811087571497 125.85095625,156.18492597607457 125.99121875000002,156.31149584518587 126.13148125000001,156.46808270674842 126.27174375000001,156.66776661442577 126.41200625,156.93802670508998 126.55226875000001,157.31321917758174 126.69253125,157.72880547792764 126.83279375,158.16094600776594 126.97305625000001,158.5952570460364 127.11331875,159.01546426983424 127.25358125000001,159.40142496296323 127.39384375,159.7206508168264 127.53410625000002,159.93559450030327 127.67436875,160.10325052913922 127.81463124999999,160.24099511083216 127.95489375000001,160.35569196182038 128.09515625,160.4538917297908 128.23541875,160.53853256676817 128.37568125,160.61211917737128 128.51594375000002,160.6746394641325 128.65620625,160.72824897777957 128.79646875,160.77474185971312 128.93673125,160.81450343018872 129.07699374999999,160.84889438768244 129.21725625,160.87780646753262 129.35751875,160.9015767226615 129.49778125,160.9213852561151 129.63804375,160.93709966693922 129.77830625,160.94890047492333 129.91856875000002,160.95670347190872 130.05883125000003,160.96066519372408 130.19909375,160.9612311108102 130.33935624999998,160.95805206493466 130.47961875000001,160.95082708985532 130.61988125,160.94020631008178 130.76014375,160.92557569063786 130.90040625,160.90633315038372 131.04066875,160.88292415991768 131.18093125000001,160.85432522472217 131.32119375,160.81957300298575 131.46145625000003,160.7793658865162 131.60171874999997,160.73182537709866 131.74198125,160.6756991946859 131.88224375,160.61105952076056 132.02250625000002,160.53357140399737 132.16276875,160.4429578775897 132.30303125,160.3354859955189 132.44329375,160.2045570003131 132.58355625,160.03986319519953 132.72381875000002,159.8126731593376 132.86408125,159.40647942344853 133.00434375000003,159.50901571346563 133.14460624999998,159.63127624902316 133.28486875,159.77873999319087 133.355,159.77873999319087" stroke="black" stroke-width="0.35" /><polyline fill="none" points="21.14500000000001,162.28554180519956 133.355,162.28554180519956" stroke="black" stroke-width="0.35" /><polyline fill="none" points="21.14500000000001,162.28554180519956 21.14500000000001,158.50053145837632" stroke="black" stroke-width="0.35" /><polyline fill="none" points="133.355,162.28554180519956 133.355,159.77873999319087" stroke="black" stroke-width="0.35" /><line stroke="black" stroke-width="0.2" x1="21.14500000000001" x2="21.14500000000001" y1="162.28554180519956" y2="172.28554180519956" /><line stroke="black" stroke-width="0.2" x1="133.355" x2="133.355" y1="162.28554180519956" y2="172.28554180519956" /><line stroke="black" stroke-width="0.2" x1="21.14500000000001" x2="133.355" y1="172.28554180519956" y2="172.28554180519956" /><polygon fill="black" points="21.14500000000001,172.28554180519956 22.34500000000001,171.53554180519956 22.34500000000001,173.03554180519956" /><polygon fill="black" points="133.355,172.28554180519956 132.155,171.53554180519956 132.155,173.03554180519956" /><text fill="black" font-size="1mm" stroke="white" stroke-linejoin="round" stroke-width="0.8" text-anchor="middle" x="77.25" y="170.48554180519955">213.21 mm</text><text fill="black" font-size="1mm" text-anchor="middle" x="77.25" y="170.48554180519955">213.21 mm</text><line stroke="black" stroke-width="0.2" x1="133.355" x2="141.5" y1="155.71445819480047" y2="155.71445819480047" /><line stroke="black" stroke-width="0.2" x1="133.355" x2="141.5" y1="162.28554180519956" y2="162.28554180519956" /><line stroke="black" stroke-width="0.2" x1="141.5" x2="141.5" y1="155.71445819480047" y2="162.28554180519956" /><polygon fill="black" points="141.5,155.71445819480047 140.75,156.91445819480046 142.25,156.91445819480046" /><polygon fill="black" points="141.5,162.28554180519956 140.75,161.08554180519957 142.25,161.08554180519957" /><text fill="black" font-size="1mm" stroke="white" stroke-linejoin="round" stroke-width="0.8" text-anchor="middle" transform="rotate(-90,143.7,159.0)" x="143.7" y="159.0">12.50 mm</text><text fill="black" font-size="1mm" text-anchor="middle" transform="rotate(-90,143.7,159.0)" x="143.7" y="159.0">12.50 mm</text><text fill="black" font-size="1mm" stroke="white" stroke-linejoin="round" stroke-width="0.8" text-anchor="start" x="12" y="112.0">Pitch = 21.32 mm (L/10)</text><text fill="black" font-size="1mm" text-anchor="start" x="12" y="112.0">Pitch = 21.32 mm (L/10)</text><rect fill="none" height="104.0" stroke="black" stroke-width="0.2" width="134.5" x="152.5" y="96.0" /><text font-size="2mm" x="154.5" y="103.0">End view (YZ)</text><polyline fill="none" points="212.90816764997226,158.28934247597488 226.59183235002772,158.28934247597488 226.59183235002772,151.71065752402512 212.90816764997226,151.71065752402512 212.90816764997226,158.28934247597488" stroke="black" stroke-width="0.35" /><polyline fill="none" points="212.90816764997226,153.53423362534755 226.59183235002772,153.53423362534755" stroke="black" stroke-width="0.35" /><line stroke="black" stroke-width="0.2" x1="212.90816764997226" x2="212.90816764997226" y1="158.28934247597488" y2="168.28934247597488" /><line stroke="black" stroke-width="0.2" x1="226.59183235002772" x2="226.59183235002772" y1="158.28934247597488" y2="168.28934247597488" /><line stroke="black" stroke-width="0.2" x1="212.90816764997226" x2="226.59183235002772" y1="168.28934247597488" y2="168.28934247597488" /><polygon fill="black" points="212.90816764997226,168.28934247597488 214.10816764997224,167.53934247597488 214.10816764997224,169.03934247597488" /><polygon fill="black" points="226.59183235002772,168.28934247597488 225.39183235002773,167.53934247597488 225.39183235002773,169.03934247597488" /><text fill="black" font-size="1mm" stroke="white" stroke-linejoin="round" stroke-width="0.8" text-anchor="middle" x="219.75" y="166.48934247597487">26.00 mm</text><text fill="black" font-size="1mm" text-anchor="middle" x="219.75" y="166.48934247597487">26.00 mm</text><line stroke="black" stroke-width="0.2" x1="226.59183235002772" x2="236.59183235002772" y1="151.71065752402512" y2="151.71065752402512" /><line stroke="black" stroke-width="0.2" x1="226.59183235002772" x2="236.59183235002772" y1="158.28934247597488" y2="158.28934247597488" /><line stroke="black" stroke-width="0.2" x1="236.59183235002772" x2="236.59183235002772" y1="151.71065752402512" y2="158.28934247597488" /><polygon fill="black" points="236.59183235002772,151.71065752402512 235.84183235002772,152.9106575240251 237.34183235002772,152.9106575240251" /><polygon fill="black" points="236.59183235002772,158.28934247597488 235.84183235002772,157.0893424759749 237.34183235002772,157.0893424759749" /><text fill="black" font-size="1mm" stroke="white" stroke-linejoin="round" stroke-width="0.8" text-anchor="middle" transform="rotate(-90,238.7918323500277,155.0)" x="238.7918323500277" y="155.0">12.50 mm</text><text fill="black" font-size="1mm" text-anchor="middle" transform="rotate(-90,238.7918323500277,155.0)" x="238.7918323500277" y="155.0">12.50 mm</text></svg>