<?xml version="1.0" encoding="utf-8" ?>
<svg baseProfile="full" height="210mm" version="1.1" viewBox="0 0 297 210" width="297mm" xmlns="http://www.w3.org/2000/svg" xmlns:ev="http://www.w3.org/2001/xml-events" xmlns:xlink="http://www.w3.org/1999/xlink"><defs /><text font-size="4mm" x="10" y="14">STL views + dimensions (unit scale x1.0)</text><rect fill="none" height="60.0" stroke="black" stroke-width="0.2" width="134.5" x="152.5" y="28" /><text font-size="2mm" x="154.5" y="35">Notes</text><text font-size="1mm" x="154.5" y="44">Drawing scale: 0.5263 mm/mm</text><rect fill="none" height="60.0" stroke="black" stroke-width="0.2" width="134.5" x="10" y="28" /><text font-size="2mm" x="12" y="35">Top view (XY)</text><polyline fill="none" points="21.14500000000001,71.84183235002773 133.355,71.84183235002773 133.355,58.15816764997226 21.14500000000001,58.15816764997226 21.14500000000001,71.84183235002773" stroke="black" stroke-width="0.35" /><line stroke="black" stroke-width="0.2" x1="21.14500000000001" x2="21.14500000000001" y1="71.84183235002773" y2="81.84183235002773" /><line stroke="black" stroke-width="0.2" x1="133.355" x2="133.355" y1="71.84183235002773" y2="81.84183235002773" /><line stroke="black" stroke-width="0.2" x1="21.14500000000001" x2="133.355" y1="81.84183235002773" y2="81.84183235002773" /><polygon fill="black" points="21.14500000000001,81.84183235002773 22.34500000000001,81.09183235002773 22.34500000000001,82.59183235002773" /><polygon fill="black" points="133.355,81.84183235002773 132.155,81.09183235002773 132.155,82.59183235002773" /><text fill="black" font-size="1mm" stroke="white" stroke-linejoin="round" stroke-width="0.8" text-anchor="middle" x="77.25" y="80.04183235002773">213.21 mm</text><text fill="black" font-size="1mm" text-anchor="middle" x="77.25" y="80.04183235002773">213.21 mm</text><line stroke="black" stroke-width="0.2" x1="133.355" x2="141.5" y1="58.15816764997226" y2="58.15816764997226" /><line stroke="black" stroke-width="0.2" x1="133.355" x2="141.5" y1="71.84183235002773" y2="71.84183235002773" /><line stroke="black" stroke-width="0.2" x1="141.5" x2="141.5" y1="58.15816764997226" y2="71.84183235002773" /><polygon fill="black" points="141.5,58.15816764997226 140.75,59.358167649972266 142.25,59.358167649972266" /><polygon fill="black" points="141.5,71.84183235002773 140.75,70.64183235002773 142.25,70.64183235002773" /><text fill="black" font-size="1mm" stroke="white" stroke-linejoin="round" stroke-width="0.8" text-anchor="middle" transform="rotate(-90,143.7,65.0)" x="143.7" y="65.0">26.00 mm</text><text fill="black" font-size="1mm" text-anchor="middle" transform="rotate(-90,143.7,65.0)" x="143.7" y="65.0">26.00 mm</text><rect fill="none" height="104.0" stroke="black" stroke-width="0.2" width="134.5" x="10" y="96.0" /><text font-size="2mm" x="12" y="103.0">Side view (XZ)</text><polyline fill="none" points="21.14500000000001,157.99032913098924 21.21513125000001,157.99032913098924 21.35539375000001,157.31033957246083 21.49565625000001,156.64994781303875 21.63591875000001,156.00823262573905 21.77618125000001,156.1370122421887 21.91644375000001,156.2669327087738 22.05670625000001,156.39833733455407 22.19696875000001,156.52976906368116 22.33723125000001,156.6600899499496 22.47749375000001,156.79116040867208 22.61775625000001,156.92245970425006 22.75801875000001,157.05228986219677 22.89828125000001,157.1842575277413 23.03854375000001,157.3152467481253 23.17880625000001,157.44675978729285 23.31906875000001,157.5777851454726 23.45933125000001,157.70858776146486 23.59959375000001,157.83820424752395 23.73985625000001,157.97151883468214 23.88011875000001,158.1019313919265 24.02038125000001,158.23371374371482 24.16064375000001,158.36297630882183 24.30090625000001,158.49417154690755 24.44116875000001,158.62590567911718 24.58143125000001,158.75736886748612 24.72169375000001,158.88717798090295 24.86195625000001,159.0179865123082 25.00221875000001,159.1466637024855 25.14248125000001,159.27779742027607 25.28274375000001,159.40820866895942 25.42300625000001,159.53680159138978 25.56326875000001,159.66728510670188 25.70353125000001,159.79643198963385 25.84379375000001,159.92497678211302 25.98405625000001,160.05447281333429 26.124318750000008,160.1823432083996 26.26458125000001,160.31029788689665 26.40484375000001,160.43709658838202 26.54510625000001,160.53534447285952 26.68536875000001,160.5972988428147 26.82563125000001,160.6231884096246 26.96589375000001,160.6114839180327 27.106156250000012,160.56381100867634 27.24641875000001,160.47906183449507 27.38668125000001,160.35768186641982 27.526943750000008,160.22511520257024 27.66720625000001,160.09318670422996 27.80746875000001,159.9585850038686 27.94773125000001,159.82536805687582 28.08799375000001,159.69007991765002 28.22825625000001,159.55457502335167 28.36851875000001,159.42056336751116 28.50878125000001,159.2862867728704 28.64904375000001,159.15107095404986 28.78930625000001,159.0174445708503 28.92956875000001,158.88150624707154 29.06983125000001,158.74578466043982 29.21009375000001,158.61133820381863 29.35035625000001,158.47379398881543 29.49061875000001,158.33695727513205 29.63088125000001,158.19946719512052 29.77114375000001,158.06250398122648 29.91140625000001,157.92724770456613 30.05166875000001,157.79241285626802 30.19193125000001,157.6562306202934 30.33219375000001,157.5198135961993 30.472456250000008,157.38569953201198 30.61271875000001,157.24996894678233 30.75298125000001,157.1151595168346 30.89324375000001,156.9780380566802 31.03350625000001,156.841937166597 31.173768750000008,156.70601685793963 31.314031250000006,156.57077391784676 31.454293750000012,156.4342635377803 31.59455625000001,156.29960762176256 31.73481875000001,156.16404259639484 31.87508125000001,156.03038617006746 32.015343750000014,155.9153100201091 32.15560625000001,155.83641612113226 32.29586875000001,155.79555875793068 32.43613125000001,155.79209985462256 32.57639375000001,155.8261476811912 32.716656250000014,155.89855721199496 32.856918750000006,156.00823262573905 32.99718125000001,156.1370122421887 33.13744375000001,156.2669327087738 33.27770625000001,156.39833733455407 33.41796875000001,156.52976906368116 33.55823125000001,156.6600899499496 33.69849375000001,156.79116040867208 33.83875625000001,156.92245970425006 33.97901875000001,157.05228986219677 34.11928125000001,157.1842575277413 34.259543750000006,157.3152467481253 34.39980625000001,157.44675978729285 34.54006875000001,157.5777851454726 34.68033125000001,157.70858776146486 34.820593750000015,157.83820424752395 34.960856250000006,157.97151883468214 35.10111875000001,158.1019313919265 35.24138125000001,158.23371374371482 35.38164375000001,158.36297630882183 35.52190625000001,158.49417154690755 35.662168750000006,158.62590567911718 35.80243125000001,158.75736886748612 35.94269375000001,158.88717798090295 36.08295625000001,159.0179865123082 36.22321875000001,159.1466637024855 36.36348125000001,159.27779742027607 36.50374375000001,159.40820866895942 36.644006250000004,159.53680159138978 36.78426875000001,159.66728510670188 36.92453125000001,159.79643198963385 37.06479375000001,159.92497678211302 37.20505625000001,160.05447281333429 37.34531875000001,160.1823432083996 37.48558125000001,160.31029788689665 37.62584375000001,160.43709658838202 37.76610625000001,160.53534447285952 37.90636875000001,160.5972988428147 38.046631250000004,160.6231884096246 38.18689375000001,160.6114839180327 38.327156250000016,160.56381100867634 38.46741875000001,160.47906183449507 38.607681250000006,160.35768186641982 38.747943750000005,160.22511520257024 38.88820625000001,160.09318670422996 39.02846875000001,159.9585850038686 39.16873125000001,159.82536805687582 39.30899375000001,159.69007991765002 39.449256250000005,159.55457502335167 39.58951875000001,159.42056336751116 39.72978125000001,159.2862867728704 39.87004375000001,159.15107095404986 40.01030625000001,159.0174445708503 40.15056875000001,158.88150624707154 40.29083125000001,158.74578466043982 40.43109375,158.61133820381863 40.57135625000001,158.47379398881543 40.711618750000014,158.33695727513205 40.851881250000005,158.19946719512052 40.99214375000001,158.06250398122648 41.13240625000001,157.92724770456613 41.27266875000001,157.79241285626802 41.412931250000014,157.6562306202934 41.553193750000005,157.5198135961993 41.69345625000001,157.38569953201198 41.83371875000001,157.24996894678233 41.97398125000001,157.1151595168346 42.114243750000014,156.9780380566802 42.254506250000006,156.841937166597 42.39476875000001,156.70601685793963 42.53503125000001,156.57077391784676 42.67529375000001,156.4342635377803 42.81555625000001,156.29960762176256 42.955818750000006,156.16404259639484 43.09608125000001,156.03055768119336 43.23634375000001,155.915481531235 43.37660625000001,155.83658763225816 43.51686875000001,155.79573026905658 43.657131250000006,155.79227136574846 43.79739375000001,155.8263191923171 43.93765625,155.89872872312083 44.07791875000001,156.00823262573905 44.218181250000015,156.1370122421887 44.358443750000006,156.2669327087738 44.498706250000005,156.39833733455407 44.638968750000004,156.52976906368116 44.77923125000001,156.6600899499496 44.91949375000001,156.79116040867208 45.05975625000001,156.92245970425006 45.20001875000001,157.05228986219677 45.34028125000001,157.1842575277413 45.48054375000001,157.3152467481253 45.62080625000001,157.44675978729285 45.76106875000001,157.5777851454726 45.90133125000001,157.70858776146486 46.04159375000001,157.83820424752395 46.18185625000001,157.97151883468214 46.32211875000001,158.1019313919265 46.46238125000001,158.23371374371482 46.60264375000001,158.36297630882183 46.742906250000004,158.49417154690755 46.88316875000001,158.62590567911718 47.02343125000001,158.75736886748612 47.16369375000001,158.88717798090295 47.30395625000001,159.0179865123082 47.444218750000005,159.1466637024855 47.58448125000001,159.27779742027607 47.72474375000001,159.40820866895942 47.86500625000001,159.53680159138978 48.005268750000006,159.66728510670188 48.145531250000005,159.79643198963385 48.28579375000001,159.92497678211302 48.426056250000016,160.05447281333429 48.56631875000001,160.1823432083996 48.706581250000006,160.31029788689665 48.846843750000005,160.43709658838202 48.98710625000001,160.53534447285952 49.12736875000001,160.5972988428147 49.26763125000001,160.6231884096246 49.407893750000014,160.6114839180327 49.54815625000001,160.56381100867634 49.68841875000001,160.47906183449507 49.82868125,160.35768186641982 49.96894375000001,160.22511520257024 50.109206250000014,160.09318670422996 50.249468750000005,159.9585850038686 50.38973125000001,159.82536805687582 50.52999375000001,159.69007991765002 50.67025625000001,159.55457502335167 50.81051875000001,159.42056336751116 50.950781250000006,159.2862867728704 51.09104375000001,159.15107095404986 51.23130625000001,159.0174445708503 51.37156875000001,158.88150624707154 51.511831250000014,158.74578466043982 51.652093750000006,158.61133820381863 51.79235625000001,158.47379398881543 51.93261875000001,158.33695727513205 52.07288125000001,158.19946719512052 52.21314375000001,158.06250398122648 52.353406250000006,157.92724770456613 52.49366875000001,157.79241285626802 52.63393125000001,157.6562306202934 52.77419375000001,157.5198135961993 52.91445625000001,157.38569953201198 53.054718750000006,157.24996894678233 53.194981250000005,157.1151595168346 53.335243750000004,156.9780380566802 53.47550625000001,156.841937166597 53.61576875000001,156.70601685793963 53.75603125000001,156.57077391784676 53.896293750000005,156.4342635377803 54.03655625000001,156.29960762176256 54.17681875000001,156.16404259639484 54.31708125000001,156.03055768119336 54.45734375000001,155.915481531235 54.597606250000005,155.83658763225816 54.73786875000001,155.79573026905658 54.87813125000001,155.79227136574846 55.018393750000016,155.8263191923171 55.15865625000001,155.89872872312083 55.298918750000006,156.00823262573905 55.43918125000001,156.1370122421887 55.57944375,156.2669327087738 55.71970625000001,156.39833733455407 55.85996875000001,156.52976906368116 56.00023125000001,156.6600899499496 56.14049375000001,156.79116040867208 56.28075625,156.92245970425006 56.42101875000001,157.05228986219677 56.56128125000001,157.1842575277413 56.701543750000006,157.3152467481253 56.841806250000005,157.44675978729285 56.98206875000001,157.5777851454726 57.12233125000001,157.70858776146486 57.26259375000001,157.83820424752395 57.40285625000001,157.97151883468214 57.543118750000005,158.1019313919265 57.68338125000001,158.23371374371482 57.82364375000001,158.36297630882183 57.96390625000001,158.49417154690755 58.10416875000001,158.62590567911718 58.244431250000005,158.75736886748612 58.38469375000001,158.88717798090295 58.52495625000001,159.0179865123082 58.66521875000001,159.1466637024855 58.80548125000001,159.27779742027607 58.94574375000001,159.40820866895942 59.086006250000004,159.53680159138978 59.22626875,159.66728510670188 59.36653125000001,159.79643198963385 59.50679375000001,159.92497678211302 59.64705625000001,160.05447281333429 59.787318750000004,160.1823432083996 59.92758125000001,160.31029788689665 60.06784375000001,160.43709658838202 60.208106250000014,160.53534447285952 60.348368750000006,160.5972988428147 60.488631250000005,160.6231884096246 60.62889375000001,160.6114839180327 60.76915625000001,160.56381100867634 60.909418750000015,160.47906183449507 61.049681250000006,160.35768186641982 61.18994375000001,160.22511520257024 61.33020625000001,160.09318670422996 61.47046875,159.9585850038686 61.61073125000001,159.82536805687582 61.750993750000006,159.69007991765002 61.89125625000001,159.55457502335167 62.03151875000001,159.42056336751116 62.17178125000001,159.2862867728704 62.31204375000001,159.15107095404986 62.45230625000001,159.0174445708503 62.592568750000005,158.88150624707154 62.732831250000004,158.74578466043982 62.87309375000001,158.61133820381863 63.01335625000001,158.47379398881543 63.153618750000014,158.33695727513205 63.29388125000001,158.19946719512052 63.434143750000004,158.06250398122648 63.57440625000001,157.92724770456613 63.71466875000001,157.79241285626802 63.85493125000001,157.6562306202934 63.995193750000006,157.5198135961993 64.13545625,157.38569953201198 64.27571875000001,157.24996894678233 64.41598125000002,157.1151595168346 64.55624375000001,156.9780380566802 64.69650625,156.841937166597 64.83676875,156.70601685793963 64.97703125000001,156.57077391784676 65.11729375000002,156.4342635377803 65.25755625000001,156.29960762176256 65.39781875,156.16404259639484 65.53808125,156.03055768119336 65.67834375000001,155.915481531235 65.81860625000002,155.83658763225816 65.95886875000001,155.79573026905658 66.09913125000001,155.79227136574846 66.23939375,155.8263191923171 66.37965625000001,155.89872872312083 66.51991875000002,156.00823262573905 66.66018125000001,156.1370122421887 66.80044375000001,156.2669327087738 66.94070625,156.39833733455407 67.08096875000001,156.52976906368116 67.22123125000002,156.6600899499496 67.36149375,156.79116040867208 67.50175625,156.92245970425006 67.64201875,157.05228986219677 67.78228125000001,157.1842575277413 67.92254375000002,157.3152467481253 68.06280625000001,157.44675978729285 68.20306875,157.5777851454726 68.34333125,157.70858776146486 68.48359375000001,157.83820424752395 68.62385625,157.97151883468214 68.76411875000001,158.1019313919265 68.90438125,158.23371374371482 69.04464375,158.36297630882183 69.18490625000001,158.49417154690755 69.32516875000002,158.62590567911718 69.46543125000001,158.75736886748612 69.60569375,158.88717798090295 69.74595625,159.0179865123082 69.88621875000001,159.1466637024855 70.02648125000002,159.27779742027607 70.16674375000001,159.40820866895942 70.30700625000001,159.53680159138978 70.44726875,159.66728510670188 70.58753125000001,159.79643198963385 70.72779375000002,159.92497678211302 70.86805625,160.05447281333429 71.00831875,160.1823432083996 71.14858125,160.31029788689665 71.28884375000001,160.43709658838202 71.42910625000002,160.53534447285952 71.56936875,160.5972988428147 71.70963125,160.6231884096246 71.84989375,160.6114839180327 71.99015625000001,160.56381100867634 72.13041875,160.47906183449507 72.27068125000001,160.35768186641982 72.41094375,160.22511520257024 72.55120625,160.09318670422996 72.69146875000001,159.9585850038686 72.83173125,159.82536805687582 72.97199375000001,159.69007991765002 73.11225625,159.55457502335167 73.25251875000001,159.42056336751116 73.39278125000001,159.2862867728704 73.53304375,159.15107095404986 73.67330625000001,159.0174445708503 73.81356875,158.88150624707154 73.95383125000001,158.74578466043982 74.09409375000001,158.61133820381863 74.23435625000002,158.47379398881543 74.37461875,158.33695727513205 74.51488125,158.19946719512052 74.65514375000001,158.06250398122648 74.79540625000001,157.92724770456613 74.93566875000002,157.79241285626802 75.07593125,157.6562306202934 75.21619375,157.5198135961993 75.35645625000001,157.38569953201198 75.49671875000001,157.24996894678233 75.63698125,157.1151595168346 75.77724375,156.9780380566802 75.91750625,156.841937166597 76.05776875000001,156.70601685793963 76.19803125000001,156.57077391784676 76.33829375,156.4342635377803 76.47855625000001,156.29960762176256 76.61881875,156.16404259639484 76.75908125000001,156.03055768119336 76.89934375000001,155.915481531235 77.03960625,155.83658763225816 77.17986875000001,155.79573026905658 77.32013125,155.79227136574846 77.46039375000001,155.8263191923171 77.60065625000001,155.89872872312083 77.74091875,156.00823262573905 77.88118125,156.1370122421887 78.02144375,156.2669327087738 78.16170625000001,156.39833733455407 78.30196875000001,156.52976906368116 78.44223125000002,156.6600899499496 78.58249375000001,156.79116040867208 78.72275625,156.92245970425006 78.86301875000001,157.05228986219677 79.00328125000001,157.1842575277413 79.14354375,157.3152467481253 79.28380625,157.44675978729285 79.42406875,157.5777851454726 79.56433125000001,157.70858776146486 79.70459375000002,157.83820424752395 79.84485625,157.97151883468214 79.98511875,158.1019313919265 80.12538125,158.23371374371482 80.26564375000001,158.36297630882183 80.40590625000002,158.49417154690755 80.54616875,158.62590567911718 80.68643125,158.75736886748612 80.82669375,158.88717798090295 80.96695625000001,159.0179865123082 81.10721875000002,159.1466637024855 81.24748125,159.27779742027607 81.38774375000001,159.40820866895942 81.52800625,159.53680159138978 81.66826875000001,159.66728510670188 81.80853125000002,159.79643198963385 81.94879375000001,159.92497678211302 82.08905625000001,160.05447281333429 82.22931875,160.1823432083996 82.36958125000001,160.31029788689665 82.50984375000002,160.43709658838202 82.65010625,160.53534447285952 82.79036875,160.5972988428147 82.93063125,160.6231884096246 83.07089375000001,160.6114839180327 83.21115625000002,160.56381100867634 83.35141875000001,160.47906183449507 83.49168125,160.35768186641982 83.63194375,160.22511520257024 83.77220625000001,160.09318670422996 83.91246875,159.9585850038686 84.05273125000001,159.82536805687582 84.19299375,159.69007991765002 84.33325625,159.55457502335167 84.47351875000001,159.42056336751116 84.61378125000002,159.2862867728704 84.75404375000001,159.15107095404986 84.89430625,159.0174445708503 85.03456875,158.88150624707154 85.17483125000001,158.74578466043982 85.31509375,158.61133820381863 85.45535625000001,158.47379398881543 85.59561875000001,158.33695727513205 85.73588125,158.19946719512052 85.87614375000001,158.06250398122648 86.01640625,157.92724770456613 86.15666875000001,157.79241285626802 86.29693125,157.6562306202934 86.43719375,157.5198135961993 86.57745625000001,157.38569953201198 86.71771875000002,157.24996894678233 86.85798125000001,157.1151595168346 86.99824375,156.9780380566802 87.13850625,156.841937166597 87.27876875000001,156.70601685793963 87.41903125,156.57077391784676 87.55929375000001,156.4342635377803 87.69955625000001,156.29960762176256 87.83981875,156.16404259639484 87.98008125000001,156.03038617006746 88.12034375,155.9153100201091 88.26060625000001,155.83641612113226 88.40086875000001,155.79555875793068 88.54113125,155.79209985462256 88.68139375000003,155.8261476811912 88.82165625,155.89855721199496 88.96191875,156.00823262573905 89.10218125000002,156.1370122421887 89.24244374999999,156.2669327087738 89.38270625000001,156.39833733455407 89.52296875,156.52976906368116 89.66323125000002,156.6600899499496 89.80349375,156.79116040867208 89.94375625000002,156.92245970425006 90.08401875000001,157.05228986219677 90.22428124999999,157.1842575277413 90.36454375000001,157.3152467481253 90.50480625,157.44675978729285 90.64506875000002,157.5777851454726 90.78533125,157.70858776146486 90.92559375000002,157.83820424752395 91.06585625000001,157.97151883468214 91.20611875,158.1019313919265 91.34638125000001,158.23371374371482 91.48664375,158.36297630882183 91.62690625000002,158.49417154690755 91.76716875,158.62590567911718 91.90743125000002,158.75736886748612 92.04769375000001,158.88717798090295 92.18795625000001,159.0179865123082 92.32821875,159.1466637024855 92.46848125,159.27779742027607 92.60874375000002,159.40820866895942 92.74900625,159.53680159138978 92.88926875000001,159.66728510670188 93.02953125,159.79643198963385 93.16979375000001,159.92497678211302 93.31005625,160.05447281333429 93.45031875000002,160.1823432083996 93.59058125000001,160.31029788689665 93.73084374999999,160.43709658838202 93.87110625000001,160.53534447285952 94.01136875,160.5972988428147 94.15163125000001,160.6231884096246 94.29189375,160.6114839180327 94.43215625000002,160.56381100867634 94.57241875000001,160.47906183449507 94.71268125,160.35768186641982 94.85294375000001,160.22511520257024 94.99320625,160.09318670422996 95.13346875,159.9585850038686 95.27373125,159.82536805687582 95.41399375000002,159.69007991765002 95.55425625000001,159.55457502335167 95.69451875000001,159.42056336751116 95.83478125,159.2862867728704 95.97504375,159.15107095404986 96.11530625,159.0174445708503 96.25556875,158.88150624707154 96.39583125000001,158.74578466043982 96.53609375,158.61133820381863 96.67635625000001,158.47379398881543 96.81661875,158.33695727513205 96.95688125000002,158.19946719512052 97.09714375,158.06250398122648 97.23740624999999,157.92724770456613 97.37766875000001,157.79241285626802 97.51793125,157.6562306202934 97.65819375000001,157.5198135961993 97.79845625,157.38569953201198 97.93871875000002,157.24996894678233 98.07898125,157.1151595168346 98.21924375,156.9780380566802 98.35950625000001,156.841937166597 98.49976875,156.70601685793963 98.64003125,156.57077391784676 98.78029375,156.4342635377803 98.92055625000002,156.29960762176256 99.06081875,156.16404259639484 99.20108125000002,156.03055768119336 99.34134375000001,155.915481531235 99.48160625000001,155.83658763225816 99.62186875,155.79573026905658 99.76213125,155.79227136574846 99.90239375000002,155.8263191923171 100.04265625,155.89872872312083 100.18291875000001,156.00823262573905 100.32318125,156.1370122421887 100.46344375000002,156.2669327087738 100.60370625,156.39833733455407 100.74396875,156.52976906368116 100.88423125000001,156.6600899499496 101.02449374999999,156.79116040867208 101.16475625000001,156.92245970425006 101.30501875,157.05228986219677 101.44528125000002,157.1842575277413 101.58554375,157.3152467481253 101.72580625,157.44675978729285 101.86606875000001,157.5777851454726 102.00633124999999,157.70858776146486 102.14659375000001,157.83820424752395 102.28685625,157.97151883468214 102.42711875000002,158.1019313919265 102.56738125,158.23371374371482 102.70764375000002,158.36297630882183 102.84790625000001,158.49417154690755 102.98816875,158.62590567911718 103.12843125,158.75736886748612 103.26869375,158.88717798090295 103.40895625000002,159.0179865123082 103.54921875,159.1466637024855 103.68948125000001,159.27779742027607 103.82974375,159.40820866895942 103.97000625000003,159.53680159138978 104.11026875,159.66728510670188 104.25053125,159.79643198963385 104.39079375000001,159.92497678211302 104.53105624999999,160.05447281333429 104.67131875000001,160.1823432083996 104.81158125,160.31029788689665 104.95184375000002,160.43709658838202 105.09210625,160.53534447285952 105.23236875000002,160.5972988428147 105.37263125000001,160.6231884096246 105.51289374999999,160.6114839180327 105.65315625000001,160.56381100867634 105.79341875,160.47906183449507 105.93368125000002,160.35768186641982 106.07394375,160.22511520257024 106.21420625000002,160.09318670422996 106.35446875000001,159.9585850038686 106.49473125,159.82536805687582 106.63499375,159.69007991765002 106.77525625,159.55457502335167 106.91551875000002,159.42056336751116 107.05578125,159.2862867728704 107.19604375000002,159.15107095404986 107.33630625,159.0174445708503 107.47656875000001,158.88150624707154 107.61683125,158.74578466043982 107.75709375,158.61133820381863 107.89735625000002,158.47379398881543 108.03761875,158.33695727513205 108.17788125000001,158.19946719512052 108.31814375,158.06250398122648 108.45840625000001,157.92724770456613 108.59866875,157.79241285626802 108.73893125000002,157.6562306202934 108.87919375000001,157.5198135961993 109.01945624999999,157.38569953201198 109.15971875000001,157.24996894678233 109.29998125,157.1151595168346 109.44024375000001,156.9780380566802 109.58050625,156.841937166597 109.72076875000002,156.70601685793963 109.86103125000001,156.57077391784676 110.00129375,156.4342635377803 110.14155625000001,156.29960762176256 110.28181875,156.16404259639484 110.42208125,156.03038617006746 110.56234375,155.9153100201091 110.70260625000002,155.83641612113226 110.84286875000001,155.79555875793068 110.98313125000001,155.79209985462256 111.12339375,155.8261476811912 111.26365625000001,155.89855721199496 111.40391875,156.00823262573905 111.54418125,156.1370122421887 111.68444375000001,156.2669327087738 111.82470625,156.39833733455407 111.96496875000001,156.52976906368116 112.10523125,156.6600899499496 112.24549375000002,156.79116040867208 112.38575625,156.92245970425006 112.52601874999999,157.05228986219677 112.66628125000001,157.1842575277413 112.80654375,157.3152467481253 112.94680625000001,157.44675978729285 113.08706875,157.5777851454726 113.22733125000002,157.70858776146486 113.36759375,157.83820424752395 113.50785625,157.97151883468214 113.64811875000001,158.1019313919265 113.78838125,158.23371374371482 113.92864375,158.36297630882183 114.06890625,158.49417154690755 114.20916875000002,158.62590567911718 114.34943125,158.75736886748612 114.48969375000001,158.88717798090295 114.62995625,159.0179865123082 114.77021875000001,159.1466637024855 114.91048125,159.27779742027607 115.05074375,159.40820866895942 115.19100625000002,159.53680159138978 115.33126874999999,159.66728510670188 115.47153125000001,159.79643198963385 115.61179375,159.92497678211302 115.75205625000002,160.05447281333429 115.89231875,160.1823432083996 116.03258124999999,160.31029788689665 116.17284375000001,160.43709658838202 116.31310624999999,160.53534447285952 116.45336875000001,160.5972988428147 116.59363125,160.6231884096246 116.73389375000002,160.6114839180327 116.87415625,160.56381100867634 117.01441875000002,160.47906183449507 117.15468125000001,160.35768186641982 117.29494374999999,160.22511520257024 117.43520625000001,160.09318670422996 117.57546875,159.9585850038686 117.71573125000002,159.82536805687582 117.85599375,159.69007991765002 117.99625625000002,159.55457502335167 118.13651875000001,159.42056336751116 118.27678125,159.2862867728704 118.41704375,159.15107095404986 118.55730625,159.0174445708503 118.69756875000002,158.88150624707154 118.83783125,158.74578466043982 118.97809375000001,158.61133820381863 119.11835625,158.47379398881543 119.25861875000002,158.33695727513205 119.39888125,158.19946719512052 119.53914375,158.06250398122648 119.67940625000001,157.92724770456613 119.81966874999999,157.79241285626802 119.95993125000001,157.6562306202934 120.10019375,157.5198135961993 120.24045625000002,157.38569953201198 120.38071875,157.24996894678233 120.52098125000002,157.1151595168346 120.66124375000001,156.9780380566802 120.80150624999999,156.841937166597 120.94176875000001,156.70601685793963 121.08203125,156.57077391784676 121.22229375000002,156.4342635377803 121.36255625,156.29960762176256 121.50281875000002,156.16404259639484 121.64308125000001,156.03055768119336 121.78334375,155.915481531235 121.92360625,155.83658763225816 122.06386875,155.79573026905658 122.20413125000002,155.79227136574846 122.34439375,155.8263191923171 122.48465625000001,155.89872872312083 122.62491875,156.00823262573905 122.76518125000001,156.1370122421887 122.90544375,156.2669327087738 123.04570625000001,156.39833733455407 123.18596875000001,156.52976906368116 123.32623124999999,156.6600899499496 123.46649375000001,156.79116040867208 123.60675625,156.92245970425006 123.74701875000001,157.05228986219677 123.88728125,157.1842575277413 124.02754375000002,157.3152467481253 124.16780625000001,157.44675978729285 124.30806874999999,157.5777851454726 124.44833125000001,157.70858776146486 124.58859375,157.83820424752395 124.72885625,157.97151883468214 124.86911875,158.1019313919265 125.00938125000002,158.23371374371482 125.14964375000001,158.36297630882183 125.28990625,158.49417154690755 125.43016875,158.62590567911718 125.57043125,158.75736886748612 125.71069375,158.88717798090295 125.85095625,159.0179865123082 125.99121875000002,159.1466637024855 126.13148125000001,159.27779742027607 126.27174375000001,159.40820866895942 126.41200625,159.53680159138978 126.55226875000001,159.66728510670188 126.69253125,159.79643198963385 126.83279375,159.92497678211302 126.97305625000001,160.05447281333429 127.11331875,160.1823432083996 127.25358125000001,160.31029788689665 127.39384375,160.43709658838202 127.53410625000002,160.53534447285952 127.67436875,160.5972988428147 127.81463124999999,160.6231884096246 127.95489375000001,160.6114839180327 128.09515625,160.56381100867634 128.23541875,160.47906183449507 128.37568125,160.35768186641982 128.51594375000002,160.22511520257024 128.65620625,160.09318670422996 128.79646875,159.9585850038686 128.93673125,159.82536805687582 129.07699374999999,159.69007991765002 129.21725625,159.55457502335167 129.35751875,159.42056336751116 129.49778125,159.2862867728704 129.63804375,159.15107095404986 129.77830625,159.0174445708503 129.91856875000002,158.88150624707154 130.05883125000003,158.74578466043982 130.19909375,158.61133820381863 130.33935624999998,158.47379398881543 130.47961875000001,158.33695727513205 130.61988125,158.19946719512052 130.76014375,158.06250398122648 130.90040625,157.92724770456613 131.04066875,157.79241285626802 131.18093125000001,157.6562306202934 131.32119375,157.5198135961993 131.46145625000003,157.38569953201198 131.60171874999997,157.24996894678233 131.74198125,157.1151595168346 131.88224375,156.9780380566802 132.02250625000002,156.841937166597 132.16276875,156.70601685793963 132.30303125,156.57077391784676 132.44329375,156.4342635377803 132.58355625,156.29960762176256 132.72381875000002,156.16404259639484 132.86408125,156.03044037676108 133.00434375000003,156.6672154413385 133.14460624999998,157.3231006598854 133.28486875,157.99908939157325 133.355,157.99908939157325" stroke="black" stroke-width="0.35" /><polyline fill="none" points="21.14500000000001,162.20790014537744 133.355,162.20790014537744" stroke="black" stroke-width="0.35" /><polyline fill="none" points="21.14500000000001,162.20790014537744 21.14500000000001,157.99032913098924" stroke="black" stroke-width="0.35" /><polyline fill="none" points="133.355,162.20790014537744 133.355,157.99908939157325" stroke="black" stroke-width="0.35" /><line stroke="black" stroke-width="0.2" x1="21.14500000000001" x2="21.14500000000001" y1="162.20790014537744" y2="172.20790014537744" /><line stroke="black" stroke-width="0.2" x1="133.355" x2="133.355" y1="162.20790014537744" y2="172.20790014537744" /><line stroke="black" stroke-width="0.2" x1="21.14500000000001" x2="133.355" y1="172.20790014537744" y2="172.20790014537744" /><polygon fill="black" points="21.14500000000001,172.20790014537744 22.34500000000001,171.45790014537744 22.34500000000001,172.95790014537744" /><polygon fill="black" points="133.355,172.20790014537744 132.155,171.45790014537744 132.155,172.95790014537744" /><text fill="black" font-size="1mm" stroke="white" stroke-linejoin="round" stroke-width="0.8" text-anchor="middle" x="77.25" y="170.40790014537743">213.21 mm</text><text fill="black" font-size="1mm" text-anchor="middle" x="77.25" y="170.40790014537743">213.21 mm</text><line stroke="black" stroke-width="0.2" x1="133.355" x2="141.5" y1="155.79209985462256" y2="155.79209985462256" /><line stroke="black" stroke-width="0.2" x1="133.355" x2="141.5" y1="162.20790014537744" y2="162.20790014537744" /><line stroke="black" stroke-width="0.2" x1="141.5" x2="141.5" y1="155.79209985462256" y2="162.20790014537744" /><polygon fill="black" points="141.5,155.79209985462256 140.75,156.99209985462255 142.25,156.99209985462255" /><polygon fill="black" points="141.5,162.20790014537744 140.75,161.00790014537745 142.25,161.00790014537745" /><text fill="black" font-size="1mm" stroke="white" stroke-linejoin="round" stroke-width="0.8" text-anchor="middle" transform="rotate(-90,143.7,159.0)" x="143.7" y="159.0">12.50 mm</text><text fill="black" font-size="1mm" text-anchor="middle" transform="rotate(-90,143.7,159.0)" x="143.7" y="159.0">12.50 mm</text><text fill="black" font-size="1mm" stroke="white" stroke-linejoin="round" stroke-width="0.8" text-anchor="start" x="12" y="112.0">Pitch = 21.32 mm (L/10)</text><text fill="black" font-size="1mm" text-anchor="start" x="12" y="112.0">Pitch = 21.32 mm (L/10)</text><rect fill="none" height="104.0" stroke="black" stroke-width="0.2" width="134.5" x="152.5" y="96.0" /><text font-size="2mm" x="154.5" y="103.0">End view (YZ)</text><polyline fill="none" points="212.90816764997226,158.28934247597488 226.59183235002772,158.28934247597488 226.59183235002772,151.71065752402512 212.90816764997226,151.71065752402512 212.90816764997226,158.28934247597488" stroke="black" stroke-width="0.35" /><line stroke="black" stroke-width="0.2" x1="212.90816764997226" x2="212.90816764997226" y1="158.28934247597488" y2="168.28934247597488" /><line stroke="black" stroke-width="0.2" x1="226.59183235002772" x2="226.59183235002772" y1="158.28934247597488" y2="168.28934247597488" /><line stroke="black" stroke-width="0.2" x1="212.90816764997226" x2="226.59183235002772" y1="168.28934247597488" y2="168.28934247597488" /><polygon fill="black" points="212.90816764997226,168.28934247597488 214.10816764997224,167.53934247597488 214.10816764997224,169.03934247597488" /><polygon fill="black" points="226.59183235002772,168.28934247597488 225.39183235002773,167.53934247597488 225.39183235002773,169.03934247597488" /><text fill="black" font-size="1mm" stroke="white" stroke-linejoin="round" stroke-width="0.8" text-anchor="middle" x="219.75" y="166.48934247597487">26.00 mm</text><text fill="black" font-size="1mm" text-anchor="middle" x="219.75" y="166.48934247597487">26.00 mm</text><line stroke="black" stroke-width="0.2" x1="226.59183235002772" x2="236.59183235002772" y1="151.71065752402512" y2="151.71065752402512" /><line stroke="black" stroke-width="0.2" x1="226.59183235002772" x2="236.59183235002772" y1="158.28934247597488" y2="158.28934247597488" /><line stroke="black" stroke-width="0.2" x1="236.59183235002772" x2="236.59183235002772" y1="151.71065752402512" y2="158.28934247597488" /><polygon fill="black" points="236.59183235002772,151.71065752402512 235.84183235002772,152.9106575240251 237.34183235002772,152.9106575240251" /><polygon fill="black" points="236.59183235002772,158.28934247597488 235.84183235002772,157.0893424759749 237.34183235002772,157.0893424759749" /><text fill="black" font-size="1mm" stroke="white" stroke-linejoin="round" stroke-width="0.8" text-anchor="middle" transform="rotate(-90,238.7918323500277,155.0)" x="238.7918323500277" y="155.0">12.50 mm</text><text fill="black" font-size="1mm" text-anchor="middle" transform="rotate(-90,238.7918323500277,155.0)" x="238.7918323500277" y="155.0">12.50 mm</text></svg>